<svg version="1.1" id="Calque_1" xmlns="http://www.w3.org/2000/svg" xmlns:xlink="http://www.w3.org/1999/xlink" x="0px" y="0px"
	 viewBox="0 0 800 800" style="enable-background:new 0 0 800 800;" xml:space="preserve">
<style type="text/css">
	.st0{fill:#FFFFFF;}
</style>
<path class="st0" d="M633.3,543.7l-32.2,32.2c-4.4,4.4-11.6,4.4-16.1,0L360,350.7c-4.4-4.4-4.4-11.6,0-16.1l32.2-32.2
	c4.4-4.4,11.6-4.4,16.1,0L520.8,415c4.4,4.4,11.6,4.4,16.1,0l0,0c4.4-4.4,4.4-11.6,0-16.1L424.3,286.4c-4.4-4.4-4.4-11.6,0-16.1
	l96.5-96.5c4.4-4.4,11.6-4.4,16.1,0l160.8,160.8c4.4,4.4,4.4,11.6,0,16.1l-32.2,32.2c-4.4,4.4-11.6,4.4-16.1,0L536.9,270.3
	c-4.4-4.4-11.6-4.4-16.1,0l0,0c-4.4,4.4-4.4,11.6,0,16.1L633.3,399c4.4,4.4,4.4,11.6,0,16.1l-48.2,48.2c-4.4,4.4-4.4,11.6,0,16.1
	l48.2,48.2C637.8,532,637.8,539.2,633.3,543.7z"/>
<path class="st0" d="M697.7,479.3l-32.2,32.2c-4.4,4.4-11.6,4.4-16.1,0l-32.2-32.2c-4.4-4.4-4.4-11.6,0-16.1l32.2-32.2
	c4.4-4.4,11.6-4.4,16.1,0l32.2,32.2C702.1,467.7,702.1,474.9,697.7,479.3z"/>
<path class="st0" d="M762,415l-32.2,32.2c-4.4,4.4-11.6,4.4-16.1,0L681.6,415c-4.4-4.4-4.4-11.6,0-16.1l32.2-32.2
	c4.4-4.4,11.6-4.4,16.1,0L762,399C766.4,403.4,766.4,410.6,762,415z"/>
<path class="st0" d="M440.4,222.1l-32.2,32.2c-4.4,4.4-11.6,4.4-16.1,0L360,222.1c-4.4-4.4-4.4-11.6,0-16.1l32.2-32.2
	c4.4-4.4,11.6-4.4,16.1,0l32.2,32.2C444.9,210.5,444.9,217.7,440.4,222.1z"/>
<path class="st0" d="M408.3,141.7l48.2,48.2c4.4,4.4,11.6,4.4,16.1,0l32.2-32.2c4.4-4.4,4.4-11.6,0-16.1l-96.5-96.5
	c-4.4-4.4-11.6-4.4-16.1,0L167.1,270.3c-4.4,4.4-4.4,11.6,0,16.1l96.5,96.5c4.4,4.4,11.6,4.4,16.1,0l96.5-96.5
	c4.4-4.4,4.4-11.6,0-16.1l-48.2-48.2c-4.4-4.4-4.4-11.6,0-16.1l64.3-64.3C396.6,137.3,403.8,137.3,408.3,141.7z M279.7,286.4
	L279.7,286.4c-4.4,4.4-11.6,4.4-16.1,0h0c-4.4-4.4-4.4-11.6,0-16.1h0c4.4-4.4,11.6-4.4,16.1,0h0C284.1,274.8,284.1,282,279.7,286.4z
	"/>
<path class="st0" d="M327.9,366.8L295.7,399c-4.4,4.4-4.4,11.6,0,16.1l176.8,176.8c4.4,4.4,4.4,11.6,0,16.1l-64.3,64.3
	c-4.4,4.4-11.6,4.4-16.1,0v0c-4.4-4.4-4.4-11.6,0-16.1l48.2-48.2c4.4-4.4,4.4-11.6,0-16.1L344,495.4c-4.4-4.4-11.6-4.4-16.1,0
	l-48.2,48.2c-4.4,4.4-11.6,4.4-16.1,0h0c-4.4-4.4-4.4-11.6,0-16.1l48.2-48.2c4.4-4.4,4.4-11.6,0-16.1L151,302.5
	c-4.4-4.4-11.6-4.4-16.1,0l-32.2,32.2c-4.4,4.4-4.4,11.6,0,16.1l112.5,112.5c4.4,4.4,4.4,11.6,0,16.1l0,0c-4.4,4.4-11.6,4.4-16.1,0
	L86.7,366.8c-4.4-4.4-11.6-4.4-16.1,0L38.5,399c-4.4,4.4-4.4,11.6,0,16.1l353.7,353.7c4.4,4.4,11.6,4.4,16.1,0L569,608
	c4.4-4.4,4.4-11.6,0-16.1L344,366.8C339.5,362.4,332.3,362.4,327.9,366.8z M327.9,608L327.9,608c-4.4-4.4-4.4-11.6,0-16.1h0
	c4.4-4.4,11.6-4.4,16.1,0l0,0c4.4,4.4,4.4,11.6,0,16.1l0,0C339.5,612.4,332.3,612.4,327.9,608z"/>
</svg>
