<svg id="Calque_1" data-name="Calque 1" xmlns="http://www.w3.org/2000/svg" viewBox="0 0 126 66"><defs><style>.cls-1{fill:#fff;}</style></defs><title>hadef-tech-logo-header</title><path class="cls-1" d="M29.89,35.59V47.83a.85.85,0,0,1-.85.85H13.31a.85.85,0,0,1-.85-.85V35.59a.85.85,0,0,0-.85-.85H2.85a.85.85,0,0,0-.85.85v22.7a.85.85,0,0,0,.85.85H53.43a.85.85,0,0,0,.85-.85V35.59a.85.85,0,0,0-.85-.85H30.74A.85.85,0,0,0,29.89,35.59ZM43,48.69H41.19a.85.85,0,0,1-.85-.85V46.05a.85.85,0,0,1,.85-.85H43a.85.85,0,0,1,.85.85v1.78A.85.85,0,0,1,43,48.69Z"/><rect class="cls-1" x="15.94" y="34.74" width="10.46" height="10.46" rx="0.85" ry="0.85"/><rect class="cls-1" x="57.77" y="34.74" width="10.46" height="10.46" rx="0.85" ry="0.85"/><rect class="cls-1" x="57.77" y="20.8" width="10.46" height="10.46" rx="0.85" ry="0.85"/><path class="cls-1" d="M57.77,7.71v8.75a.85.85,0,0,0,.85.85h54.07a.85.85,0,0,1,.85.85V47.83a.85.85,0,0,1-.85.85h-1.78a.85.85,0,0,1-.85-.85V21.65a.85.85,0,0,0-.85-.85H86.51a.85.85,0,0,0-.85.85V47.83a.85.85,0,0,1-.85.85H83a.85.85,0,0,1-.85-.85V21.65a.85.85,0,0,0-.85-.85H72.57a.85.85,0,0,0-.85.85V47.83a.85.85,0,0,1-.85.85H58.62a.85.85,0,0,0-.85.85v8.75a.85.85,0,0,0,.85.85h64.52a.85.85,0,0,0,.85-.85V7.71a.85.85,0,0,0-.85-.85H58.62A.85.85,0,0,0,57.77,7.71Zm41,41H97a.85.85,0,0,1-.85-.85V32.11a.85.85,0,0,1,.85-.85h1.78a.85.85,0,0,1,.85.85V47.83A.85.85,0,0,1,98.75,48.69Z"/><path class="cls-1" d="M26.4,18.17v1.78a.85.85,0,0,0,.85.85H53.43a.85.85,0,0,1,.85.85v8.75a.85.85,0,0,1-.85.85H2.85A.85.85,0,0,1,2,30.41V21.65a.85.85,0,0,1,.85-.85H15.09a.85.85,0,0,0,.85-.85V7.71a.85.85,0,0,1,.85-.85H53.43a.85.85,0,0,1,.85.85v8.75a.85.85,0,0,1-.85.85H27.25A.85.85,0,0,0,26.4,18.17Z"/><path class="cls-1" d="M7.11,13.05h0a.85.85,0,0,0,.85.85h5.11a.85.85,0,0,1,.85.85v3.41a.85.85,0,0,1-.85.85H2.85A.85.85,0,0,1,2,18.17V7.94a.85.85,0,0,1,.85-.85H13.08a.85.85,0,0,1,.85.85v3.41a.85.85,0,0,1-.85.85H8A.85.85,0,0,0,7.11,13.05Z"/></svg>
