<svg version="1.1" id="Calque_1" xmlns="http://www.w3.org/2000/svg" xmlns:xlink="http://www.w3.org/1999/xlink" x="0px" y="0px"
	 viewBox="0 0 112 25" style="enable-background:new 0 0 112 25;" xml:space="preserve">
<style type="text/css">
	.st0{fill:url(#SVGID_1_);}
	.st1{fill:url(#SVGID_2_);}
	.st2{fill:url(#SVGID_3_);}
	.st3{fill:url(#SVGID_4_);}
	.st4{fill:url(#SVGID_5_);}
	.st5{fill:url(#SVGID_6_);}
	.st6{fill:url(#SVGID_7_);}
	.st7{fill:url(#SVGID_8_);}
	.st8{fill:url(#SVGID_9_);}
	.st9{fill:url(#SVGID_10_);}
	.st10{fill:url(#SVGID_11_);}
	.st11{fill:url(#SVGID_12_);}
	.st12{fill:url(#SVGID_13_);}
	.st13{fill:url(#SVGID_14_);}
	.st14{fill:url(#SVGID_15_);}
	.st15{fill:url(#SVGID_16_);}
	.st16{fill:url(#SVGID_17_);}
	.st17{fill:url(#SVGID_18_);}
	.st18{fill:url(#SVGID_19_);}
	.st19{fill:url(#SVGID_20_);}
	.st20{fill:url(#SVGID_21_);}
	.st21{fill:url(#SVGID_22_);}
	.st22{fill:url(#SVGID_23_);}
	.st23{fill:url(#SVGID_24_);}
	.st24{fill:url(#SVGID_25_);}
	.st25{fill:url(#SVGID_26_);}
	.st26{fill:url(#SVGID_27_);}
	.st27{fill:url(#SVGID_28_);}
</style>
<g>
	<linearGradient id="SVGID_1_" gradientUnits="userSpaceOnUse" x1="0.2646" y1="13.6338" x2="26.9419" y2="13.6338">
		<stop  offset="0" style="stop-color:#00F6DA"/>
		<stop  offset="1" style="stop-color:#00B3D4"/>
	</linearGradient>
	<path class="st0" d="M26.9,18v5.4H5.6c-1.8,0-3.2-0.5-4-1.6s-1.3-2.8-1.3-5c0-2.1,0.3-4.1,1-6l4.6,0.7C5.3,12.8,5,14.1,5,15.3
		c0,1.2,0.1,2.1,0.4,2.7h14.1V4.6h4.8V18H26.9z M15.9,10.3l-7,1.9v-2.1l1.1-0.3C9.8,9.3,9.7,8.8,9.7,8.3c0-1.5,0.5-2.5,1.4-3.2
		S13.3,4,15,3.9v2.5c-0.8,0.1-1.6,0.3-2.5,0.6v1.3c0,0.4,0.2,0.7,0.5,0.7c0.1,0,0.3,0,0.5-0.1l2.3-0.6V10.3z"/>
	<linearGradient id="SVGID_2_" gradientUnits="userSpaceOnUse" x1="25.7485" y1="12.1267" x2="38.0127" y2="12.1267">
		<stop  offset="0" style="stop-color:#00F6DA"/>
		<stop  offset="1" style="stop-color:#00B3D4"/>
	</linearGradient>
	<path class="st1" d="M25.7,18h4.5V9.4H35v14h-9.3V18z M28.7,5.5c-0.4-0.3-0.8-0.6-1-1c-0.3-0.4-0.4-0.8-0.4-1.1
		c0-0.3,0.1-0.7,0.4-1.1c0.3-0.4,0.6-0.7,1-1c0.4-0.3,0.8-0.4,1.1-0.4c0.3,0,0.7,0.1,1.1,0.4c0.4,0.3,0.7,0.6,1,1
		c0.3,0.4,0.4,0.8,0.4,1.1c0,0.3-0.1,0.7-0.4,1.1c-0.3,0.4-0.6,0.8-1,1c-0.4,0.3-0.8,0.4-1.1,0.4S29.1,5.8,28.7,5.5z M34.4,5.5
		c-0.4-0.3-0.8-0.6-1-1c-0.3-0.4-0.4-0.8-0.4-1.1c0-0.3,0.1-0.7,0.4-1.1c0.3-0.4,0.6-0.7,1-1c0.4-0.3,0.8-0.4,1.1-0.4
		c0.3,0,0.7,0.1,1.1,0.4c0.4,0.3,0.7,0.6,1,1C37.9,2.7,38,3.1,38,3.4c0,0.3-0.1,0.7-0.4,1.1c-0.3,0.4-0.6,0.8-1,1
		c-0.4,0.3-0.8,0.4-1.1,0.4S34.8,5.8,34.4,5.5z"/>
	<linearGradient id="SVGID_3_" gradientUnits="userSpaceOnUse" x1="44.5474" y1="12.1267" x2="71.5234" y2="12.1267">
		<stop  offset="0" style="stop-color:#00F6DA"/>
		<stop  offset="1" style="stop-color:#00B3D4"/>
	</linearGradient>
	<path class="st2" d="M45.8,21.8c-0.9-1.1-1.3-2.8-1.3-5c0-2.1,0.3-4.1,1-6l4.6,0.7c-0.5,1.4-0.8,2.6-0.8,3.8c0,1.2,0.1,2.1,0.4,2.7
		h7.5c-0.2-0.7-0.4-1.3-0.5-1.8c-0.1-0.5-0.1-1.1-0.1-1.8c0-1.8,0.6-3.2,1.9-4.1c1.3-0.9,3.2-1.4,5.9-1.4c1.5,0,2.8,0.1,3.9,0.3
		c1.1,0.2,2.2,0.5,3.3,0.9v13.3H49.9C48.1,23.4,46.7,22.9,45.8,21.8z M66.5,17.8c0.2-0.2,0.3-0.5,0.3-0.9v-2.5h-3.9
		c-0.4,0-0.7,0.1-0.9,0.2c-0.2,0.2-0.3,0.5-0.3,0.9V18h3.9C66,18,66.3,17.9,66.5,17.8z M63.9,5.5c-0.4-0.3-0.8-0.6-1-1
		c-0.3-0.4-0.4-0.8-0.4-1.1c0-0.3,0.1-0.7,0.4-1.1c0.3-0.4,0.6-0.7,1-1C64.3,1,64.7,0.9,65,0.9s0.7,0.1,1.1,0.4c0.4,0.3,0.7,0.6,1,1
		s0.4,0.8,0.4,1.1c0,0.3-0.1,0.7-0.4,1.1c-0.3,0.4-0.6,0.8-1,1c-0.4,0.3-0.8,0.4-1.1,0.4S64.3,5.8,63.9,5.5z"/>
	<linearGradient id="SVGID_4_" gradientUnits="userSpaceOnUse" x1="74.208" y1="16.0657" x2="90.3516" y2="16.0657">
		<stop  offset="0" style="stop-color:#00F6DA"/>
		<stop  offset="1" style="stop-color:#00B3D4"/>
	</linearGradient>
	<path class="st3" d="M90.4,18v5.4H74.2V18h8.3c-0.2-1-0.4-1.8-0.7-2.4c-0.3-0.6-0.6-0.9-1-1.2s-1-0.3-1.7-0.3
		c-1.2,0-2.4,0.1-3.5,0.4l-1.3-5.2C75,9.1,75.7,9,76.6,8.9c0.9-0.1,1.7-0.1,2.6-0.1c1.8,0,3.2,0.3,4.3,0.8c1.1,0.5,1.9,1.4,2.6,2.7
		c0.7,1.3,1.3,3.2,1.9,5.8H90.4z"/>
	<linearGradient id="SVGID_5_" gradientUnits="userSpaceOnUse" x1="89.1582" y1="14.2903" x2="111.5088" y2="14.2903">
		<stop  offset="0" style="stop-color:#00F6DA"/>
		<stop  offset="1" style="stop-color:#00B3D4"/>
	</linearGradient>
	<path class="st4" d="M111.5,19.2v4.2H89.2V18H92c0.1-1.7,0.3-2.9,0.6-3.7c0.4-0.8,1-1.4,1.8-1.6c0.8-0.3,2-0.4,3.5-0.4
		c1.6,0,2.8,0.1,3.6,0.4c0.8,0.3,1.4,0.8,1.7,1.6s0.6,2,0.6,3.7h2.4l-0.9-3.6c-0.2-0.9-0.6-1.7-1.1-2.2s-1.4-1-2.5-1.3
		c-1.1-0.3-2.6-0.4-4.6-0.4l0.3-5.2c2.7,0,4.9,0.2,6.6,0.7c1.7,0.5,2.9,1.2,3.8,2.3c0.9,1,1.6,2.5,2,4.3L111.5,19.2z M96.1,18h3.5
		v-1.9h-2.6c-0.3,0-0.5,0.1-0.7,0.2s-0.3,0.4-0.3,0.6V18z"/>
</g>
<g>
	<linearGradient id="SVGID_6_" gradientUnits="userSpaceOnUse" x1="9.8967" y1="5.6452" x2="15.0059" y2="5.6452">
		<stop  offset="0" style="stop-color:#00F6DA"/>
		<stop  offset="1" style="stop-color:#00B3D4"/>
	</linearGradient>
	<path class="st5" d="M10,7c0.9,0,1.7,0.1,2.5,0.4V6.9c0.8-0.3,1.7-0.5,2.5-0.6V3.9c-1.7,0.2-3,0.6-3.9,1.3c-0.6,0.4-1,1.1-1.2,1.9
		C9.9,7,10,7,10,7z"/>
	<linearGradient id="SVGID_7_" gradientUnits="userSpaceOnUse" x1="14.6235" y1="8.861" x2="15.8711" y2="8.861">
		<stop  offset="0" style="stop-color:#00F6DA"/>
		<stop  offset="1" style="stop-color:#00B3D4"/>
	</linearGradient>
	<path class="st6" d="M15.9,9.6V8.1l-1.2,0.3C15.1,8.8,15.5,9.2,15.9,9.6z"/>
	<linearGradient id="SVGID_8_" gradientUnits="userSpaceOnUse" x1="0.2646" y1="13.9917" x2="25.7485" y2="13.9917">
		<stop  offset="0" style="stop-color:#00F6DA"/>
		<stop  offset="1" style="stop-color:#00B3D4"/>
	</linearGradient>
	<path class="st7" d="M25.2,18h-0.9v-0.6C22.3,16,21,13.6,21,11c0-2.6,1.3-4.9,3.2-6.4h-4.7V18h-2.1c-1.2,2.9-4.1,5-7.4,5
		c-4.4,0-8-3.6-8-8c0-1.4,0.4-2.8,1.1-4l-1.8-0.3c-0.6,1.9-1,3.9-1,6c0,2.3,0.4,4,1.3,5s2.2,1.6,4,1.6h20.1v-5.1
		C25.5,18.2,25.4,18.1,25.2,18z"/>
</g>
<g>
	<linearGradient id="SVGID_9_" gradientUnits="userSpaceOnUse" x1="8.8286" y1="8.0386" x2="15.8711" y2="8.0386">
		<stop  offset="0" style="stop-color:#00F6DA"/>
		<stop  offset="1" style="stop-color:#00B3D4"/>
	</linearGradient>
	<path class="st8" d="M15.9,8.1l-2.3,0.6c-0.2,0.1-0.4,0.1-0.5,0.1c-0.3,0-0.5-0.2-0.5-0.7V6.9c0.8-0.3,1.7-0.5,2.5-0.6V3.9
		c-1.7,0.2-3,0.6-3.9,1.3S9.7,6.9,9.7,8.3c0,0.5,0.1,1,0.2,1.4l-1.1,0.3v2.1l7-1.9V8.1z"/>
	<linearGradient id="SVGID_10_" gradientUnits="userSpaceOnUse" x1="0.2646" y1="13.9917" x2="25.0939" y2="13.9917">
		<stop  offset="0" style="stop-color:#00F6DA"/>
		<stop  offset="1" style="stop-color:#00B3D4"/>
	</linearGradient>
	<path class="st9" d="M25.1,18h-0.8V4.6h-4.8V18H5.4C5.2,17.4,5,16.4,5,15.3c0-1.2,0.3-2.4,0.8-3.8l-4.6-0.7c-0.6,1.9-1,3.9-1,6
		c0,2.3,0.4,4,1.3,5s2.2,1.6,4,1.6h12C18.8,20.4,21.7,18.2,25.1,18z"/>
</g>
<linearGradient id="SVGID_11_" gradientUnits="userSpaceOnUse" x1="9.7241" y1="7.4479" x2="15.8711" y2="7.4479">
	<stop  offset="0" style="stop-color:#00F6DA"/>
	<stop  offset="1" style="stop-color:#00B3D4"/>
</linearGradient>
<path class="st10" d="M13.3,11l2.6-0.7V8.1l-2.3,0.6c-0.2,0.1-0.4,0.1-0.5,0.1c-0.3,0-0.5-0.2-0.5-0.7V6.9c0.8-0.3,1.7-0.5,2.5-0.6
	V3.9c-1.7,0.2-3,0.6-3.9,1.3S9.7,6.9,9.7,8.3c0,0.1,0,0.1,0,0.2C11.1,9,12.3,9.9,13.3,11z"/>
<linearGradient id="SVGID_12_" gradientUnits="userSpaceOnUse" x1="0.2646" y1="13.9917" x2="25.0939" y2="13.9917">
	<stop  offset="0" style="stop-color:#00F6DA"/>
	<stop  offset="1" style="stop-color:#00B3D4"/>
</linearGradient>
<path class="st11" d="M24.3,18V4.6h-4.8V18h-8.6c-0.5,2.3-2.5,4-4.9,4c-2.8,0-5-2.2-5-5c0-2.6,2-4.8,4.6-5c0.1-0.2,0.1-0.4,0.2-0.6
	l-4.6-0.7c-0.6,1.9-1,3.9-1,6c0,2.3,0.4,4,1.3,5s2.2,1.6,4,1.6h12c1.2-3,4.1-5.2,7.5-5.4H24.3z"/>
<g>
	<linearGradient id="SVGID_13_" gradientUnits="userSpaceOnUse" x1="33.5975" y1="2.7668" x2="38.0127" y2="2.7668">
		<stop  offset="0" style="stop-color:#00F6DA"/>
		<stop  offset="1" style="stop-color:#00B3D4"/>
	</linearGradient>
	<path class="st12" d="M37.4,4.7c0.1-0.1,0.1-0.1,0.2-0.2C37.9,4.1,38,3.7,38,3.4c0-0.3-0.1-0.7-0.4-1.1c-0.3-0.4-0.6-0.7-1-1
		c-0.4-0.3-0.8-0.4-1.1-0.4c-0.3,0-0.7,0.1-1.1,0.4c-0.3,0.2-0.6,0.5-0.8,0.8C35.3,2.3,36.6,3.3,37.4,4.7z"/>
	<linearGradient id="SVGID_14_" gradientUnits="userSpaceOnUse" x1="27.2402" y1="3.0272" x2="31.754" y2="3.0272">
		<stop  offset="0" style="stop-color:#00F6DA"/>
		<stop  offset="1" style="stop-color:#00B3D4"/>
	</linearGradient>
	<path class="st13" d="M28.3,5.2c0.6-1.5,1.8-2.6,3.4-3c-0.3-0.3-0.6-0.6-0.9-0.9c-0.4-0.3-0.8-0.4-1.1-0.4c-0.3,0-0.7,0.1-1.1,0.4
		c-0.4,0.3-0.7,0.6-1,1c-0.3,0.4-0.4,0.8-0.4,1.1c0,0.3,0.1,0.7,0.4,1.1C27.9,4.7,28.1,5,28.3,5.2z"/>
	<linearGradient id="SVGID_15_" gradientUnits="userSpaceOnUse" x1="25.7485" y1="17.2743" x2="34.999" y2="17.2743">
		<stop  offset="0" style="stop-color:#00F6DA"/>
		<stop  offset="1" style="stop-color:#00B3D4"/>
	</linearGradient>
	<path class="st14" d="M33,12c-1,0-2-0.3-2.8-0.8V18h-4.5v5.4H35V11.6C34.4,11.8,33.7,12,33,12z"/>
</g>
<linearGradient id="SVGID_16_" gradientUnits="userSpaceOnUse" x1="0.2646" y1="13.9917" x2="25.0939" y2="13.9917">
	<stop  offset="0" style="stop-color:#00F6DA"/>
	<stop  offset="1" style="stop-color:#00B3D4"/>
</linearGradient>
<path class="st15" d="M21.5,18c0.7,0,1.4,0.1,2,0.3c0.5-0.1,1-0.2,1.6-0.2h-0.8V4.6h-4.8V18h-8.6c-0.5,2.3-2.5,4-4.9,4
	c-2.8,0-5-2.2-5-5c0-2.6,2-4.8,4.6-5c0.1-0.2,0.1-0.4,0.2-0.6l-4.6-0.7c-0.6,1.9-1,3.9-1,6c0,2.3,0.4,4,1.3,5s2.2,1.6,4,1.6h8
	C14.8,20.2,17.9,18,21.5,18z"/>
<linearGradient id="SVGID_17_" gradientUnits="userSpaceOnUse" x1="74.208" y1="16.0657" x2="89.1582" y2="16.0657">
	<stop  offset="0" style="stop-color:#00F6DA"/>
	<stop  offset="1" style="stop-color:#00B3D4"/>
</linearGradient>
<path class="st16" d="M89.2,18.1L89.2,18.1L88,18c-0.6-2.6-1.2-4.5-1.9-5.8c-0.7-1.3-1.6-2.2-2.6-2.7C82.4,9,81,8.7,79.2,8.7
	c-0.9,0-1.7,0-2.6,0.1C75.7,9,75,9.1,74.3,9.3l1.3,5.2c1.1-0.3,2.3-0.4,3.5-0.4c0.7,0,1.3,0.1,1.7,0.3s0.8,0.6,1,1.2
	c0.3,0.6,0.5,1.4,0.7,2.4h-8.3v5.4h9C83.9,20.6,86.2,18.4,89.2,18.1z"/>
<linearGradient id="SVGID_18_" gradientUnits="userSpaceOnUse" x1="89.1582" y1="18.0379" x2="89.5938" y2="18.0379">
	<stop  offset="0" style="stop-color:#00F6DA"/>
	<stop  offset="1" style="stop-color:#00B3D4"/>
</linearGradient>
<path class="st17" d="M89.6,18h-0.4v0C89.3,18,89.4,18,89.6,18z"/>
<g>
	<linearGradient id="SVGID_19_" gradientUnits="userSpaceOnUse" x1="97.1855" y1="14.2903" x2="111.5088" y2="14.2903">
		<stop  offset="0" style="stop-color:#00F6DA"/>
		<stop  offset="1" style="stop-color:#00B3D4"/>
	</linearGradient>
	<path class="st18" d="M104.2,12.2c0.5,0.6,0.9,1.3,1.1,2.2l0.5,2.2c2.6,1.5,4.6,3.9,5.5,6.8h0.1v-4.2l-1.6-6.7
		c-0.4-1.8-1.1-3.2-2-4.3c-0.9-1-2.2-1.8-3.8-2.3c-1.7-0.5-3.8-0.7-6.6-0.7l-0.3,5.2c1.9,0,3.4,0.1,4.6,0.4
		C102.9,11.2,103.7,11.6,104.2,12.2z"/>
	<linearGradient id="SVGID_20_" gradientUnits="userSpaceOnUse" x1="97.1855" y1="14.2903" x2="111.5088" y2="14.2903">
		<stop  offset="0" style="stop-color:#00F6DA"/>
		<stop  offset="1" style="stop-color:#00B3D4"/>
	</linearGradient>
	<path class="st19" d="M104.2,12.2c0.5,0.6,0.9,1.3,1.1,2.2l0.5,2.2c2.6,1.5,4.6,3.9,5.5,6.8h0.1v-4.2l-1.6-6.7
		c-0.4-1.8-1.1-3.2-2-4.3c-0.9-1-2.2-1.8-3.8-2.3c-1.7-0.5-3.8-0.7-6.6-0.7l-0.3,5.2c1.9,0,3.4,0.1,4.6,0.4
		C102.9,11.2,103.7,11.6,104.2,12.2z"/>
	<linearGradient id="SVGID_21_" gradientUnits="userSpaceOnUse" x1="89.1582" y1="17.0718" x2="103.568" y2="17.0718">
		<stop  offset="0" style="stop-color:#00F6DA"/>
		<stop  offset="1" style="stop-color:#00B3D4"/>
	</linearGradient>
	<path class="st20" d="M100,15c1.2,0,2.4,0.2,3.6,0.5c-0.1-0.5-0.2-0.9-0.4-1.2c-0.4-0.8-1-1.3-1.7-1.6c-0.8-0.3-2-0.4-3.6-0.4
		c-1.6,0-2.7,0.1-3.5,0.4c-0.8,0.3-1.4,0.8-1.8,1.6c-0.4,0.8-0.6,2-0.6,3.7h-2.8v3.9C91.1,17.8,95.2,15,100,15z"/>
</g>
<linearGradient id="SVGID_22_" gradientUnits="userSpaceOnUse" x1="97.658" y1="7.0968" x2="108.0534" y2="7.0968">
	<stop  offset="0" style="stop-color:#00F6DA"/>
	<stop  offset="1" style="stop-color:#00B3D4"/>
</linearGradient>
<path class="st21" d="M108.1,8.5c-0.1-0.1-0.1-0.2-0.2-0.3c-0.9-1-2.2-1.8-3.8-2.3c-1.6-0.5-3.7-0.7-6.4-0.7C99.3,7.5,102,9,105,9
	C106.1,9,107.1,8.8,108.1,8.5z"/>
<g>
	<linearGradient id="SVGID_23_" gradientUnits="userSpaceOnUse" x1="62.4512" y1="2.5343" x2="66.9882" y2="2.5343">
		<stop  offset="0" style="stop-color:#00F6DA"/>
		<stop  offset="1" style="stop-color:#00B3D4"/>
	</linearGradient>
	<path class="st22" d="M67,2.2c-0.3-0.3-0.6-0.7-0.9-0.9C65.7,1,65.3,0.9,65,0.9S64.3,1,63.9,1.3c-0.4,0.3-0.7,0.6-1,1
		c-0.3,0.4-0.4,0.8-0.4,1.1c0,0.2,0.1,0.5,0.3,0.8C64,3.2,65.4,2.5,67,2.2z"/>
	<linearGradient id="SVGID_24_" gradientUnits="userSpaceOnUse" x1="44.5474" y1="16.6245" x2="71.5234" y2="16.6245">
		<stop  offset="0" style="stop-color:#00F6DA"/>
		<stop  offset="1" style="stop-color:#00B3D4"/>
	</linearGradient>
	<path class="st23" d="M69,22c-5.5,0-10-4.5-10-10c0-0.7,0.1-1.5,0.2-2.1c-0.3,0.1-0.5,0.3-0.8,0.4c-1.3,0.9-1.9,2.3-1.9,4.1
		c0,0.7,0,1.3,0.1,1.8c0.1,0.5,0.2,1.1,0.5,1.8h-7.5c-0.3-0.7-0.4-1.6-0.4-2.7c0-1.2,0.3-2.4,0.8-3.8l-4.6-0.7c-0.6,1.9-1,3.9-1,6
		c0,2.3,0.4,4,1.3,5s2.2,1.6,4,1.6h21.6v-1.7C70.7,21.9,69.9,22,69,22z"/>
</g>
<g>
	<linearGradient id="SVGID_25_" gradientUnits="userSpaceOnUse" x1="62.4512" y1="3.3984" x2="67.5254" y2="3.3984">
		<stop  offset="0" style="stop-color:#00F6DA"/>
		<stop  offset="1" style="stop-color:#00B3D4"/>
	</linearGradient>
	<path class="st24" d="M63.9,5.5c0.4,0.3,0.8,0.4,1.1,0.4s0.7-0.1,1.1-0.4c0.4-0.3,0.8-0.6,1-1c0.3-0.4,0.4-0.8,0.4-1.1
		c0-0.3-0.1-0.7-0.4-1.1s-0.6-0.7-1-1C65.7,1,65.3,0.9,65,0.9S64.3,1,63.9,1.3c-0.4,0.3-0.7,0.6-1,1c-0.3,0.4-0.4,0.8-0.4,1.1
		c0,0.3,0.1,0.7,0.4,1.1C63.2,4.9,63.5,5.2,63.9,5.5z"/>
	<linearGradient id="SVGID_26_" gradientUnits="userSpaceOnUse" x1="44.5474" y1="16.6301" x2="49.5446" y2="16.6301">
		<stop  offset="0" style="stop-color:#00F6DA"/>
		<stop  offset="1" style="stop-color:#00B3D4"/>
	</linearGradient>
	<path class="st25" d="M46,19c0-3.1,1.4-5.8,3.5-7.6l-4-0.6c-0.6,1.9-1,3.9-1,6c0,2.3,0.4,4,1.3,5c0.2,0.3,0.5,0.5,0.8,0.7
		C46.2,21.4,46,20.2,46,19z"/>
	<linearGradient id="SVGID_27_" gradientUnits="userSpaceOnUse" x1="59.6052" y1="16.1553" x2="71.5234" y2="16.1553">
		<stop  offset="0" style="stop-color:#00F6DA"/>
		<stop  offset="1" style="stop-color:#00B3D4"/>
	</linearGradient>
	<path class="st26" d="M68.2,9.2c-1.1-0.2-2.4-0.3-3.9-0.3c-2,0-3.6,0.3-4.8,0.8c2.3,0.9,4.2,2.6,5.3,4.7h1.9v2.5
		c0,0.4-0.1,0.7-0.3,0.9c-0.1,0.1-0.3,0.2-0.5,0.2c0,0.3,0.1,0.7,0.1,1c0,1.6-0.4,3.1-1,4.4h6.5V10.1C70.4,9.7,69.3,9.4,68.2,9.2z"
		/>
</g>
<linearGradient id="SVGID_28_" gradientUnits="userSpaceOnUse" x1="44.5474" y1="16.6245" x2="71.5234" y2="16.6245">
	<stop  offset="0" style="stop-color:#00F6DA"/>
	<stop  offset="1" style="stop-color:#00B3D4"/>
</linearGradient>
<path class="st27" d="M69,22c-5.5,0-10-4.5-10-10c0-0.7,0.1-1.5,0.2-2.1c-0.3,0.1-0.5,0.3-0.8,0.4c-1.3,0.9-1.9,2.3-1.9,4.1
	c0,0.7,0,1.3,0.1,1.8c0.1,0.5,0.2,1.1,0.5,1.8h-7.5c-0.3-0.7-0.4-1.6-0.4-2.7c0-1.2,0.3-2.4,0.8-3.8l-4.6-0.7c-0.6,1.9-1,3.9-1,6
	c0,2.3,0.4,4,1.3,5c0.2,0.2,0.4,0.4,0.7,0.6C48.3,20.3,51,19,54,19c3.4,0,6.5,1.7,8.3,4.4h9.2v-1.7C70.7,21.9,69.9,22,69,22z"/>
</svg>
