<svg version="1.1" id="Calque_1" xmlns="http://www.w3.org/2000/svg" xmlns:xlink="http://www.w3.org/1999/xlink" x="0px" y="0px"
	 viewBox="0 0 60 60" style="enable-background:new 0 0 60 60;" xml:space="preserve">
<style type="text/css">
	.st0{fill:#FFFFFF;}
</style>
<path class="st0" d="M47,40.5l-2.3,2.3c-0.3,0.3-0.8,0.3-1.2,0L27.1,26.4c-0.3-0.3-0.3-0.8,0-1.2l2.3-2.3c0.3-0.3,0.8-0.3,1.2,0
	l8.2,8.2c0.3,0.3,0.8,0.3,1.2,0h0c0.3-0.3,0.3-0.8,0-1.2l-8.2-8.2c-0.3-0.3-0.3-0.8,0-1.2l7-7c0.3-0.3,0.8-0.3,1.2,0l11.7,11.7
	c0.3,0.3,0.3,0.8,0,1.2l-2.3,2.3c-0.3,0.3-0.8,0.3-1.2,0L40,20.5c-0.3-0.3-0.8-0.3-1.2,0h0c-0.3,0.3-0.3,0.8,0,1.2l8.2,8.2
	c0.3,0.3,0.3,0.8,0,1.2l-3.5,3.5c-0.3,0.3-0.3,0.8,0,1.2l3.5,3.5C47.3,39.6,47.3,40.2,47,40.5z"/>
<path class="st0" d="M51.7,35.8l-2.3,2.3c-0.3,0.3-0.8,0.3-1.2,0l-2.3-2.3c-0.3-0.3-0.3-0.8,0-1.2l2.3-2.3c0.3-0.3,0.8-0.3,1.2,0
	l2.3,2.3C52,34.9,52,35.5,51.7,35.8z"/>
<path class="st0" d="M56.3,31.2l-2.6,2.6c-0.4,0.4-1,0.4-1.3,0l-2.6-2.6c-0.4-0.4-0.4-1,0-1.3l2.6-2.6c0.4-0.4,1-0.4,1.3,0l2.6,2.6
	C56.7,30.2,56.7,30.8,56.3,31.2z"/>
<path class="st0" d="M32.9,17l-2.3,2.3c-0.3,0.3-0.8,0.3-1.2,0L27.1,17c-0.3-0.3-0.3-0.8,0-1.2l2.3-2.3c0.3-0.3,0.8-0.3,1.2,0
	l2.3,2.3C33.3,16.2,33.3,16.7,32.9,17z"/>
<path class="st0" d="M30.6,11.1l3.5,3.5c0.3,0.3,0.8,0.3,1.2,0l2.3-2.3c0.3-0.3,0.3-0.8,0-1.2l-7-7c-0.3-0.3-0.8-0.3-1.2,0L13,20.5
	c-0.3,0.3-0.3,0.8,0,1.2l7,7c0.3,0.3,0.8,0.3,1.2,0l7-7c0.3-0.3,0.3-0.8,0-1.2L24.7,17c-0.3-0.3-0.3-0.8,0-1.2l4.7-4.7
	C29.7,10.8,30.3,10.8,30.6,11.1z M21.2,21.7L21.2,21.7c-0.3,0.3-0.8,0.3-1.2,0l0,0c-0.3-0.3-0.3-0.8,0-1.2l0,0
	c0.3-0.3,0.8-0.3,1.2,0l0,0C21.5,20.8,21.5,21.4,21.2,21.7z"/>
<path class="st0" d="M24.7,27.6l-2.3,2.3c-0.3,0.3-0.3,0.8,0,1.2L35.3,44c0.3,0.3,0.3,0.8,0,1.2l-4.7,4.7c-0.3,0.3-0.8,0.3-1.2,0v0
	c-0.3-0.3-0.3-0.8,0-1.2l3.5-3.5c0.3-0.3,0.3-0.8,0-1.2l-7-7c-0.3-0.3-0.8-0.3-1.2,0l-3.5,3.5c-0.3,0.3-0.8,0.3-1.2,0v0
	c-0.3-0.3-0.3-0.8,0-1.2l3.5-3.5c0.3-0.3,0.3-0.8,0-1.2L11.8,22.9c-0.3-0.3-0.8-0.3-1.2,0l-2.3,2.3c-0.3,0.3-0.3,0.8,0,1.2l8.2,8.2
	c0.3,0.3,0.3,0.8,0,1.2v0c-0.3,0.3-0.8,0.3-1.2,0l-8.2-8.2c-0.3-0.3-0.8-0.3-1.2,0l-2.3,2.3c-0.3,0.3-0.3,0.8,0,1.2l25.8,25.8
	c0.3,0.3,0.8,0.3,1.2,0l11.7-11.7c0.3-0.3,0.3-0.8,0-1.2L25.9,27.6C25.6,27.2,25,27.2,24.7,27.6z M24.7,45.2L24.7,45.2
	c-0.3-0.3-0.3-0.8,0-1.2v0c0.3-0.3,0.8-0.3,1.2,0v0c0.3,0.3,0.3,0.8,0,1.2v0C25.6,45.5,25,45.5,24.7,45.2z"/>
</svg>
