
<svg id="Calque_1" data-name="Calque 1" xmlns="http://www.w3.org/2000/svg" viewBox="0 0 1715 772"><defs><style>.cls-1{fill:#006064;}</style></defs><title>logo</title><path class="cls-1" d="M410.83,423.23V589.06a11.54,11.54,0,0,1-11.54,11.54H186.23a11.54,11.54,0,0,1-11.54-11.54V423.23a11.54,11.54,0,0,0-11.54-11.54H44.54A11.54,11.54,0,0,0,33,423.23V730.74a11.54,11.54,0,0,0,11.54,11.54H729.88a11.54,11.54,0,0,0,11.54-11.54V423.23a11.54,11.54,0,0,0-11.54-11.54H422.37A11.54,11.54,0,0,0,410.83,423.23ZM588.2,600.6H564.06a11.54,11.54,0,0,1-11.54-11.54V564.92a11.54,11.54,0,0,1,11.54-11.54H588.2a11.54,11.54,0,0,1,11.54,11.54v24.14A11.54,11.54,0,0,1,588.2,600.6Z"/><rect class="cls-1" x="221.91" y="411.69" width="141.69" height="141.69" rx="11.54" ry="11.54"/><rect class="cls-1" x="788.66" y="411.69" width="141.69" height="141.69" rx="11.54" ry="11.54"/><rect class="cls-1" x="788.66" y="222.77" width="141.69" height="141.69" rx="11.54" ry="11.54"/><path class="cls-1" d="M788.66,45.4V164a11.54,11.54,0,0,0,11.54,11.54h732.57a11.54,11.54,0,0,1,11.54,11.54v402a11.54,11.54,0,0,1-11.54,11.54h-24.14a11.54,11.54,0,0,1-11.54-11.54V234.32a11.54,11.54,0,0,0-11.54-11.54H1178a11.54,11.54,0,0,0-11.54,11.54V589.06a11.54,11.54,0,0,1-11.54,11.54H1130.8a11.54,11.54,0,0,1-11.54-11.54V234.32a11.54,11.54,0,0,0-11.54-11.54H989.12a11.54,11.54,0,0,0-11.54,11.54V589.06A11.54,11.54,0,0,1,966,600.6H800.2a11.54,11.54,0,0,0-11.54,11.54v118.6a11.54,11.54,0,0,0,11.54,11.54h874.25A11.54,11.54,0,0,0,1686,730.74V45.4a11.54,11.54,0,0,0-11.54-11.54H800.2A11.54,11.54,0,0,0,788.66,45.4Zm555.2,555.2h-24.14a11.54,11.54,0,0,1-11.54-11.54V376a11.54,11.54,0,0,1,11.54-11.54h24.14A11.54,11.54,0,0,1,1355.4,376V589.06A11.54,11.54,0,0,1,1343.86,600.6Z"/><path class="cls-1" d="M363.6,187.09v24.14a11.54,11.54,0,0,0,11.54,11.54H729.88a11.54,11.54,0,0,1,11.54,11.54v118.6a11.54,11.54,0,0,1-11.54,11.54H44.54A11.54,11.54,0,0,1,33,352.91V234.32a11.54,11.54,0,0,1,11.54-11.54H210.37a11.54,11.54,0,0,0,11.54-11.54V45.4a11.54,11.54,0,0,1,11.54-11.54H729.88A11.54,11.54,0,0,1,741.43,45.4V164a11.54,11.54,0,0,1-11.54,11.54H375.14A11.54,11.54,0,0,0,363.6,187.09Z"/><path class="cls-1" d="M102.27,117.82h0a11.54,11.54,0,0,0,11.54,11.54h69.27a11.54,11.54,0,0,1,11.54,11.54v46.18a11.54,11.54,0,0,1-11.54,11.54H44.54A11.54,11.54,0,0,1,33,187.09V48.55A11.54,11.54,0,0,1,44.54,37H183.08a11.54,11.54,0,0,1,11.54,11.54V94.73a11.54,11.54,0,0,1-11.54,11.54H113.81A11.54,11.54,0,0,0,102.27,117.82Z"/></svg>
