<svg version="1.1" id="Calque_1" xmlns="http://www.w3.org/2000/svg" xmlns:xlink="http://www.w3.org/1999/xlink" x="0px" y="0px"
	 viewBox="0 0 106 22" style="enable-background:new 0 0 106 22;" xml:space="preserve">
<style type="text/css">
	.st0{fill:#B84100;}
</style>
<g>
	<path class="st0" d="M10.7,18.1c-1.2,0-1.8,0.2-1.9,0.5C8.6,19,8.1,19.1,7,19.1c-0.7,0-1.2-0.1-1.5-0.3c-0.6-0.4-1-0.6-1.2-0.6
		c-0.8-0.2-2-0.3-3.7-0.3c0.2-0.1,0.5-0.2,0.7-0.2c0.2,0,0.4-0.1,0.6-0.1c0.3,0,0.6,0,0.9,0.1c0.3,0.1,0.6,0.2,0.9,0.2
		c0.2,0,0.3-0.1,0.3-0.3c0-0.5-0.1-1-0.3-1.4c-0.1-0.1-0.2-0.3-0.3-0.5c0-0.1-0.1-0.2-0.2-0.2c-0.1,0-0.2,0.1-0.4,0.2
		c0,0-0.1,0-0.1,0.1c0.2-0.4,0.3-0.7,0.3-1c0.1-0.3,0.1-0.6,0.1-0.8c0-0.1,0-0.2,0-0.4c0-0.1,0-0.2,0-0.2V11
		c-0.3-0.1-0.4-0.2-0.5-0.2c-0.1,0-0.1-0.1-0.2-0.1c0,0-0.1,0-0.1,0c-0.1,0-0.1,0-0.2,0h1V8.6c-0.3,0-0.5,0-0.6,0
		c-0.2,0-0.3,0-0.4,0c-0.2,0-0.3-0.1-0.5-0.2C1.5,8.4,1.2,8.2,0.8,7.8V7c0.4-0.2,0.8-0.3,1.1-0.4c0.4-0.1,0.7-0.1,1-0.2
		C3,5.7,3.1,4.7,3.2,3.7c0.1-0.7,0.1-1.2,0.1-1.4c0.3,0,0.5,0,0.6-0.1C4,2.1,4,2.1,4,2c0.4,0,0.7,0.5,0.8,1.5
		c0.1,0.6,0.1,1.5,0.1,2.7l0.4,0.5c0.1-0.1,0.2-0.2,0.3-0.3C5.8,6.4,6,6.2,6.3,6C6.3,6,6.2,6,6.1,6.1c0,0.1-0.1,0.2-0.2,0.4
		c0.3,0.1,0.7,0.2,0.9,0.2c0.3,0,0.6,0.1,0.8,0.1c0.2,0,0.4,0,0.5,0c0.1,0,0.3,0,0.4,0c0.2,0,0.3,0,0.4,0.1s0.2,0.2,0.3,0.5
		c0,0.3,0,0.5,0,0.6c0,0.2,0.1,0.5,0.2,0.7c-0.4-0.1-1-0.2-1.9-0.2c-0.9,0-1.7,0-2.7,0c0,0.2,0,0.9-0.1,2.1
		c-0.1,0.7-0.1,1.3-0.1,1.8c0,0.2,0,0.4,0,0.5s0,0.4,0,0.6c0,0.9,0.1,1.6,0.2,2c0.2,0.6,0.4,0.9,0.9,0.9c0,0.2,0,0.3,0.1,0.4
		c0.2,0.6,0.6,0.9,1.3,0.9c0.5,0,0.9-0.1,1.1-0.4c0.2-0.2,0.3-0.5,0.3-0.9l0.2-0.8c0.4,0.1,0.7,0.2,1,0.2c0.2,0,0.3,0,0.4,0
		l-0.2,2.1c0.1,0,0.2,0,0.3,0.1c0,0,0.1,0,0.1-0.1c0.1-0.1,0.2-0.2,0.2-0.2C10.5,17.8,10.6,18,10.7,18.1z M3.8,1.5
		C3.8,1.5,3.8,1.5,3.8,1.5c0-0.1-0.2-0.1-0.4-0.1c-0.2,0-0.4,0-0.4,0c0,0,0,0,0,0.1c0.2,0.1,0.3,0.1,0.4,0.1S3.6,1.5,3.8,1.5z
		 M9.9,20.5H8.5h1.2c0-0.2,0-0.4,0-0.4s0.1-0.2,0.2-0.4V20.5z"/>
	<path class="st0" d="M11.8,12.3c-0.1,0-0.3,0.1-0.4,0.1c0.2-0.1,0.4-0.1,0.5-0.2c0.2-0.1,0.4-0.1,0.8-0.2h0c0,0-0.1,0-0.1,0.1
		C12.2,12.2,11.9,12.3,11.8,12.3z M11.4,20.9h4.9c0,0,0,0,0,0c0,0-0.1,0-0.2,0H11.4z M22.8,6.5c-0.6-0.7-1.1-1.3-1.8-1.9l-4,0.5
		L13.5,4c0,0-0.2,0.2-0.6,0.5c-0.3,0.2-0.4,0.6-0.4,1.1c0,0.7,0.4,1.1,1.1,1.1c0.7,0.1,1.1,0.6,1.1,1.7c0,0.1,0,0.3-0.1,0.6
		s-0.1,0.4-0.1,0.4c-0.6,0-0.9,0-1,0.1c0,0,0,0,0,0c0,0-0.1-0.1-0.2-0.1s-0.2,0-0.3-0.1c0.2,0.1,0.4,0.2,0.5,0.3
		c0.1,0,0.3,0.1,0.5,0.1h0.2c0.3,0,0.4,0.1,0.5,0.3c0.1,0.2,0.1,0.6,0.1,1.3c0,0.2-0.1,0.4-0.2,0.6c-0.2,0.2-0.5,0.4-0.7,0.6h0.7
		l-0.2,2.2c-0.3-0.1-0.6-0.2-0.7-0.2c-0.1,0-0.6,0.3-1.4,0.8c0.2,0,0.4,0,0.6,0c0.2,0,0.3,0,0.3,0c0.2,0,0.4,0,0.5,0.1
		c0.1,0,0.4,0.2,0.9,0.5c-0.1,0.3-0.1,0.6-0.1,0.7c0,0.1,0,0.3-0.1,0.6h-1.9c0,0.2-0.1,0.5-0.1,0.8c0,0.3-0.1,0.6-0.1,1
		c0.3,0,0.6,0.1,1,0.1c0.3,0.1,0.6,0.2,0.9,0.5c0,0.1,0.1,0.2,0.2,0.2c0.1,0,0.2,0.1,0.3,0.1c-0.1-0.1-0.2-0.1-0.3-0.1
		c-0.1,0-0.1-0.1-0.2-0.2c0.4-0.1,0.8-0.3,1.2-0.3c0.4-0.1,0.9-0.1,1.5-0.1c0.6,0,1.2,0.1,1.7,0.2c0.3,0.1,0.6,0.2,0.8,0.3
		c0.1-0.3,0.3-0.6,0.4-0.8c0.1-0.1,0.3-0.3,0.7-0.7c-0.6-0.4-1-0.6-1.3-0.8c-0.3-0.1-0.5-0.2-0.8-0.2c-0.1,0-0.1,0-0.2,0
		s-0.1,0-0.2,0c-0.2,0-0.4,0-0.6-0.1c-0.2,0-0.4-0.1-0.7-0.3v-0.9c0.3-0.1,0.5-0.2,0.5-0.3c0,0-0.1,0-0.2-0.1c-0.1,0-0.2,0-0.2,0
		c0-0.1,0.1-0.1,0.4-0.3c0.1,0.2,0.1,0.3,0.1,0.4c0,0,0,0,0.1,0c0,0,0.1,0.1,0.2,0.3c0.1-0.2,0.1-0.3,0.1-0.4c0-0.1,0-0.2,0-0.3
		c0-0.1,0.1-0.3,0.2-0.5c-0.2,0-0.3,0-0.4,0c-0.1,0-0.1,0.1-0.1,0.2c0,0.1,0,0.1,0.1,0.2c0,0,0.1,0,0.1,0.1c0,0,0,0-0.1-0.1
		c0,0-0.1,0-0.1-0.1c-0.1,0.1-0.2,0.1-0.3,0.2c-0.1,0-0.1,0.1-0.2,0.1c0.1,0,0.1,0,0.1-0.1c0.2-0.1,0.3-0.2,0.3-0.4
		c0-0.1-0.1-0.1-0.2-0.2c0.1-0.2,0.2-0.3,0.2-0.3c0-0.1,0-0.2,0.1-0.3c-0.1,0.1-0.2,0.2-0.2,0.3c0,0.1,0,0.1-0.1,0.1
		c0,0-0.1,0-0.1-0.1c0,0-0.1,0-0.3,0c0-0.5,0.1-0.9,0.1-1.2c0-0.3,0.1-0.6,0.1-1c0-0.1-0.2-0.2-0.4-0.4c-0.1-0.1-0.1-0.1-0.1-0.2
		c0,0,0-0.2,0-0.4c0-0.2,0-0.4,0-0.6c0-0.3,0.1-0.6,0.4-0.7c0.2-0.1,0.8-0.2,1.6-0.2l-1.6-0.3V8.4c0.2-0.2,0.5-0.5,0.7-0.9
		c0.1,0.1,0.2,0.2,0.2,0.2c0,0,0.1,0,0.1,0c0,0,0.1,0,0.1,0c0-0.1,0-0.2,0-0.3c0-0.3,0.2-0.6,0.6-0.8c0.3-0.1,0.7-0.2,1.1-0.2
		c0.2,0.1,0.4,0.2,0.6,0.2c0.2,0.1,0.4,0.1,0.7,0.1c0,0.4-0.1,0.7-0.2,0.9c0.3,0,0.5,0.2,0.8,0.5c0.1,0.1,0.2,0.3,0.3,0.5
		c0,0.1,0,0.2-0.1,0.4c-0.1,0.2-0.1,0.3-0.1,0.4h1.6c0-0.1,0.1-0.3,0.3-0.5c0.1-0.2,0.2-0.4,0.2-0.6C23.8,8.1,23.4,7.4,22.8,6.5z
		 M18.4,12c-0.1,0-0.2,0-0.3,0.1c-0.1,0.1-0.3,0.2-0.5,0.3c-0.1,0.1-0.2,0.2-0.2,0.2c0.2-0.1,0.4-0.1,0.6-0.2
		c0.2-0.1,0.4-0.2,0.5-0.3C18.6,12.1,18.5,12.1,18.4,12z M19.5,20.8c-0.1,0-0.3,0-0.4,0c-0.1,0-0.2,0-0.3,0c-0.1,0-0.2,0-0.3,0.1
		c0.1,0,0.3,0,0.4,0.1c0.3,0,0.6,0,0.9,0c0.1,0,0.2,0,0.3,0c-0.1,0-0.1-0.1-0.2-0.1C19.7,20.8,19.6,20.8,19.5,20.8z M23.1,10.4
		c-0.1,0-0.1,0.1-0.1,0.2C23.1,10.5,23.2,10.5,23.1,10.4c0.1,0,0.1-0.1,0.2-0.2C23.3,10.3,23.2,10.4,23.1,10.4z"/>
	<path class="st0" d="M36,9c-0.3,0.5-0.6,1.2-0.7,1.8s-0.1,1.7-0.1,3.2v1.8c0.1,0,0.1-0.1,0.2-0.4c0-0.3,0.1-0.4,0.1-0.5
		c0,0.1,0,0.3,0,0.3c0,0.4,0,0.8,0.1,1.2c0.1,0.4,0.2,1,0.4,1.7c-0.2-0.3-0.4-0.5-0.5-0.7c-0.4-0.5-0.6-0.7-0.6-0.7
		c-0.1,0-0.3,0.2-0.6,0.5c-0.4,0.5-0.7,1-0.9,1.6H30c-0.4,0-0.9-0.1-1.5-0.4c-0.7-0.2-1.1-0.4-1.3-0.4c-0.2,0-0.4,0.1-0.5,0.3
		c-0.3-0.3-0.5-0.7-0.8-1.2c-0.4-0.7-0.7-1.3-0.7-1.5c0-0.2,0.2-0.8,0.5-1.7c0.3-0.9,0.5-1.5,0.5-1.9c0-0.1,0-0.2,0-0.3
		c0.4-0.2,1.2-0.4,2.2-0.6c1-0.2,2.3-0.3,3.9-0.3c0.1-0.1,0.3-0.3,0.5-0.4c0.2-0.1,0.5-0.3,1-0.6c-0.3-0.2-0.6-0.3-1-0.3
		s-0.7-0.1-1-0.1c-0.3,0-1,0.1-2.3,0.3c-0.7,0.1-1.3,0.1-1.7,0.1l0.4-1.9C28.1,8,28,8.2,28,8.4c-0.1,0.4-0.4,0.6-0.9,0.6
		c0-0.2-0.1-0.7-0.2-1.5S26.6,6,26.6,5.7c0-0.4,0.1-0.7,0.4-0.9c0.3-0.2,0.7-0.3,1.1-0.3c0.5,0,1.2,0.1,1.9,0.1
		c0.7,0,1.3,0.1,1.8,0.1c0.9,0,1.5,0,1.6-0.1c-0.1-0.3-0.1-0.5-0.1-0.6s-0.1-0.2-0.1-0.5c0.7,0.8,1.3,1.4,1.7,2s0.8,1.2,1.1,1.8
		L36,9z M26.2,9.9c0-0.1-0.1,0-0.3,0.1c-0.1,0-0.1,0-0.1,0c0,0,0.1,0,0.1,0C26,9.8,26.1,9.5,26.1,9L26.2,9.9z M33.4,8.9l-0.1-1.5
		l-0.6,0.4l0.2-0.9L30,7.2c-0.2,0.2-0.4,0.3-0.6,0.3c-0.2,0-0.3-0.1-0.6-0.2s-0.4-0.2-0.5-0.2c-0.2,0-0.3,0.1-0.5,0.3
		c-0.2,0.2-0.4,0.6-0.6,1.1L33.4,8.9z M33,13.9l-0.1-1.5l-4.6,0.4c-0.2,0.2-0.3,0.5-0.5,0.7c-0.1,0.4-0.2,0.7-0.3,1.1
		c0.1-0.1,0.2-0.2,0.3-0.2c0.1,0,0.2-0.1,0.4-0.1l0,0.9l-0.6,0.4c0.3,0.3,0.6,0.5,0.8,0.6c0.2,0.1,0.4,0.2,0.5,0.2
		c0.1,0,0.2,0,0.3,0c0.1,0,0.2,0,0.3,0c0.6,0,1.2-0.2,1.7-0.6s1-0.7,1.2-0.8l-0.6,0c0.2-0.2,0.4-0.4,0.6-0.6
		C32.5,14.2,32.7,14.1,33,13.9z M31.3,15.3c0-0.2,0-0.4-0.1-0.5c0-0.1,0-0.3,0-0.4c0,0.1,0,0.2,0,0.3c0,0.1,0,0.2,0,0.3
		C31.3,15.1,31.3,15.2,31.3,15.3z"/>
	<path class="st0" d="M49.2,6.6c0,0.7-0.2,1.6-0.6,2.7c-0.4,1.1-0.6,1.8-0.6,2c0,0.3,0,0.5,0.1,0.6c0.1,0.2,0.3,0.3,0.5,0.5
		c-0.2,0.1-0.4,0.2-0.6,0.3c-0.3,0.2-0.5,0.4-0.7,0.5v1.5c0.3,0.1,0.6,0.2,0.8,0.2s0.5,0.1,0.7,0.1c-0.8,0-1.3,0.1-1.6,0.4
		c-0.2,0.2-0.3,0.5-0.3,0.9c0,0.1,0,0.4,0.1,0.6c0,0.3,0.1,0.5,0.1,0.6c0,0.3-0.1,0.5-0.2,0.6c-0.1,0.1-0.3,0.1-0.6,0.1
		c-0.1,0.2-0.2,0.4-0.3,0.6c-0.2,0.2-0.4,0.2-0.6,0.2c-0.5-0.1-1.2-0.1-1.9-0.2c-0.7-0.1-1.5-0.1-2.4-0.1c0-0.2,0.1-0.5,0.1-0.7
		c0-0.2,0.1-0.3,0.1-0.4c0-0.1,0-0.2-0.1-0.3c-0.1-0.1-0.2-0.2-0.5-0.4c0.1-0.1,0.1-0.2,0.2-0.3c0-0.1,0.1-0.3,0.1-0.6
		c0-0.5-0.1-0.9-0.4-1c-0.3-0.1-0.6-0.1-0.7-0.2c0.1-0.1,0.2-0.2,0.3-0.4c0.1-0.2,0.1-0.5,0.1-0.9c0-0.1-0.1-0.8-0.4-2
		c-0.3-1.2-0.6-2.4-0.9-3.6s-0.4-1.8-0.4-1.9c0.2-0.3,0.3-0.5,0.3-0.6c0.3-0.4,0.5-0.6,0.6-0.6c0.4,0,0.7,0.1,0.8,0.3
		c0.1,0.1,0.2,0.4,0.2,0.8c0,0.3,0,0.4,0,0.6c0,0.3,0,0.6,0.1,0.9c0.1,0.3,0.4,0.6,0.7,0.8l-0.4,0.9c0.2,0.2,0.3,0.3,0.4,0.4
		s0.2,0.1,0.4,0.2c-0.1,0-0.2,0-0.3,0.1c-0.1,0.1-0.2,0.1-0.3,0.2c0,0.1,0.1,0.2,0.1,0.2c0.1,0,0.2,0.1,0.5,0.1c0,0.1,0,0.2,0,0.3
		s0,0.2,0,0.4c0,0.4,0.1,0.8,0.2,1.2c0,0.1,0,0.1,0.1,0.2c0,0.3,0,0.4-0.1,0.5c0,0-0.1,0-0.1,0.1c0,0.4,0.2,0.9,0.6,1.5
		c0.4,0.6,0.9,1.1,1.4,1.4c-0.3,0.1-0.4,0.1-0.5,0.1c-0.3,0.1-0.5,0.1-0.6,0.2l0.4,0.9l2.2-0.3v-1.5c-0.2-0.1-0.4-0.1-0.6-0.2
		c-0.2-0.1-0.3-0.1-0.5-0.1h-0.2c0.9,0,1.4,0,1.5-0.1c-0.2-0.6,0.2-1.4,1-2.5c-0.1,0-0.2,0-0.2,0c-0.1,0-0.2,0-0.2,0
		c-0.3,0-0.4,0-0.5,0h0.5l0.4-0.9c-0.1-0.1-0.2-0.1-0.3-0.2c-0.1,0-0.2-0.1-0.3-0.1c0.2-0.1,0.4-0.1,0.6-0.2c0.2,0,0.3-0.2,0.3-0.4
		c0-0.2,0-0.5,0-0.8c0-0.3,0-0.7,0-1c0-0.4,0.4-0.8,1.1-1.5c-0.2-0.7-0.3-1.4-0.4-2c0.2,0,0.3,0,0.5-0.1c0.2-0.1,0.3-0.1,0.4-0.2
		c0.3,0,0.5,0.1,0.8,0.4S49.2,6.2,49.2,6.6z M46.3,9.9c0,0,0,0.1,0.1,0.1c-0.1,0.1-0.2,0.1-0.5,0.1c-0.3,0-0.4,0-0.4-0.1
		c0,0,0-0.1,0.1-0.1s0.2-0.1,0.2-0.1C46,9.7,46,9.7,46,9.7C46.1,9.7,46.2,9.8,46.3,9.9z"/>
	<path class="st0" d="M62.8,18.6c-0.4,0.1-1,0.3-2,0.4c-1,0.1-2,0.3-2.9,0.5s-1.6,0.4-2,0.6c0.1,0,0.2-0.1,0.3-0.1
		c0.1-0.1,0.1-0.1,0.2-0.1c-0.9-0.3-1.8-0.6-2.7-0.8c-0.9-0.2-1.8-0.3-2.5-0.3h1.3c0.1-0.1,0.1-0.2,0.2-0.3c0.1-0.1,0.2-0.2,0.2-0.2
		c-0.3-0.4-0.6-0.9-0.7-1.3c-0.2-0.4-0.4-0.9-0.6-1.3c-0.1,0.2-0.1,0.4-0.2,0.4s0,0.2-0.1,0.4V9.2l0.4,0.6c0.1-0.2,0.1-0.4,0.2-0.5
		c0.1-0.2,0.2-0.3,0.2-0.3c0-0.1-0.1-0.4-0.2-0.9c0.6-0.4,1.1-0.7,1.6-1.1c0.3-0.3,0.5-0.6,0.8-0.9c0.4,0.1,0.8,0.2,1.1,0.2
		c0.3,0,0.4-0.1,0.6-0.2c0.1-0.1,0.1-0.2,0.2-0.4c0.7,0,1.2,0,1.4,0.1c0.1,0,0.1,0.1,0.2,0.2c0,0.2,0.1,0.3,0.4,0.3
		c0.2,0,0.4-0.1,0.7-0.2C59.1,6.1,59.2,6,59.4,6c0.6,0.3,1.2,1.1,1.8,2.4c0.6,1.3,1.1,2.2,1.7,2.5c-0.4,0.3-0.6,0.5-0.7,0.6
		c-0.1,0.2-0.2,0.5-0.2,0.9V13c0,0.3,0,0.4,0,0.4c0.2,0,0.5,0,0.8,0.1c-0.4,0.1-0.9,0.2-1.6,0.3c-0.7,0.1-1.5,0.1-2.4,0.1
		c-1.3,0-2.5,0-3.7-0.1c-1.1-0.1-1.8-0.2-1.9-0.2V16l9.5,0c-0.1,0.1-0.2,0.2-0.3,0.3c-0.1,0.1-0.1,0.1-0.1,0.1c0,0,0-0.1-0.1-0.1
		c-0.1-0.1-0.2-0.2-0.3-0.3c-0.1,0.6-0.2,1.1-0.2,1.4c-0.1,0.4-0.2,0.8-0.2,1c0.3,0.1,0.5,0.2,0.6,0.2S62.6,18.6,62.8,18.6z
		 M60.5,11.7l-6.5,0c-0.1,0-0.1-0.2-0.1-0.5c-0.1-0.7-0.2-1.1-0.3-1.2c0.1,0.1,0.2,0.2,0.4,0.3c0-0.2,0-0.3,0-0.4c0,0,0-0.1,0-0.1
		c0,0,0-0.1,0.1-0.1c0-0.1,0.1-0.2,0.2-0.5C54,9.3,54,9.5,53.9,9.7c0.3-0.5,0.7-0.9,1-1.4c0.1-0.1,0.4-0.1,1-0.1h1
		c0.3,0,0.6,0.1,1,0.2c0.3,0.1,0.7,0.3,1,0.4c-0.1-0.3-0.3-0.5-0.5-0.6c0.3,0.3,0.8,1,1.3,2.1C60,10.8,60.2,11.3,60.5,11.7z
		 M54.8,11.7C55,11.8,55,11.9,55,12c0,0,0,0.1-0.1,0.1c-0.3,0-0.6-0.1-0.9-0.2c0,0,0-0.1-0.1-0.1c0.2,0,0.2-0.1,0.2-0.2
		c0-0.1,0-0.2,0-0.2c0.1,0,0.1,0,0.2,0.1C54.5,11.5,54.6,11.6,54.8,11.7z M60,16.9c-0.1-0.1-0.2-0.2-0.2-0.3
		c-0.1-0.1-0.1-0.2-0.2-0.3h-5.4c0.2,0.6,0.6,1,1,1.2c0.4,0.2,0.9,0.2,1.6,0.2c0.2,0,0.4,0,0.6-0.2c0.3-0.1,0.5-0.2,0.7-0.2
		c-0.1-0.1-0.2-0.3-0.2-0.6c0.3,0.1,0.5,0.2,0.5,0.2c0.2,0.1,0.3,0.1,0.4,0.1c0,0,0.1,0,0.3-0.1C59.4,17.1,59.7,17,60,16.9z"/>
	<path class="st0" d="M71.4,17.7c-0.4,0.4-0.6,0.7-0.9,1.1c-0.1,0.1-0.2,0.2-0.3,0.4c-1.1-0.1-2-0.2-2.6-0.3c-1.7-0.2-2.7-0.4-3-0.4
		c0,0,0-0.1,0-0.1c-0.1-0.2-0.1-0.3-0.1-0.4c0-0.3,0.1-0.5,0.3-0.6s0.5-0.2,0.9-0.2c0.1,0,0.3,0,0.5,0s0.4,0,0.6,0
		c0-0.1,0-0.3,0.1-0.4c0-0.1-0.1-0.2-0.3-0.4c0.2,0,0.4-0.1,0.6-0.2c-0.2-0.2-0.2-0.3-0.2-0.5l-0.6-0.2h-1.5h2.1
		c0-0.4,0-0.8,0.1-1.2c0.1-0.4,0.1-0.7,0.1-0.9l-0.6,0.1c0.4-0.8,0.6-1.4,0.6-1.8c0-0.4-0.2-0.6-0.5-0.7C66.3,11,65.7,11,64.8,11
		c0.8,0,1.3,0,1.4,0c0.6-0.1,0.9-0.3,0.9-0.8c0-0.3-0.1-0.9-0.4-1.6c0,0.1,0,0.2,0.1,0.2c0,0.1,0.1,0.1,0.1,0.2
		c0-0.1,0.1-0.1,0.1-0.2c0.1-0.3,0.1-0.7,0.1-1c0-0.3,0-0.7,0-1s0-0.6,0-0.8c0-0.6-0.1-1-0.3-1.1c-0.5-0.3-1.1-0.6-1.8-1
		c0.2-0.3,0.4-0.6,0.5-1c0.2-0.2,0.6-0.3,1.3-0.3h0.6c0.3,0,0.6,0.1,0.7,0.2c0.2,0.1,0.3,0.4,0.3,0.8c0.1,0.9,0.2,1.8,0.2,2.6
		c0,0.5,0,1,0,1.7c-0.1,1.5-0.1,2.6-0.1,3.2c0.3,0,0.8,0,1.5,0c0.7,0,1.1,0,1.3,0c-0.9,0-1.6,0.1-2.1,0.2c-0.5,0.1-0.7,0.4-0.7,0.8
		c0,0.4,0.1,0.8,0.3,1c0.1,0.1,0.4,0.3,0.8,0.5c-0.5,0.1-0.8,0.1-1.1,0.2v3.2c0.4,0.1,0.9,0.2,1.4,0.3
		C70.4,17.3,70.9,17.5,71.4,17.7z"/>
	<path class="st0" d="M80.1,11.4c0.3,0,0.5,0.1,0.7,0.1c0.5,0.1,0.7,0.3,0.8,0.5c0,0.1,0,0.1-0.1,0.1c-0.2,0-0.5-0.2-1.1-0.5
		C80.4,11.6,80.3,11.5,80.1,11.4z M83.8,19.1h2.8h-3.2c-0.1,0-0.3,0-0.5,0c-0.3,0-0.6,0-0.9,0c-0.4,0-0.6,0-0.7,0
		c-0.1,0-0.2,0-0.4,0L83.8,19.1z M92.4,18.2c-1.1,0-1.9,0.1-2.2,0.2c-0.3,0.1-0.7,0.4-1.1,0.8h-5.2c-0.6-0.6-1-1.1-1.2-1.2
		c-0.3-0.3-0.5-0.4-0.7-0.4c0-0.2,0-0.3,0-0.5c0-0.2,0-0.3,0-0.3c0-0.5-0.1-0.8-0.2-0.9c-0.2-0.1-0.5-0.2-0.6-0.2v-4.4
		c0.4-0.9,0.6-1.5,0.7-1.8c0.1-0.4,0.2-0.7,0.2-1c0-0.2,0-0.5-0.1-0.8c0.8-0.4,1.9-0.9,3.5-1.6c0.3-0.1,0.5-0.3,0.5-0.6
		c0.2,0.3,0.4,0.5,0.6,0.6c0.2,0.1,0.3,0.2,0.4,0.2c0.1,0,0.2,0,0.4-0.1c0.2-0.1,0.3-0.1,0.5-0.1c0.2,0,0.4,0,0.6,0.1
		c0.2,0.1,0.5,0.2,0.8,0.5c0.3-0.5,0.4-0.8,0.5-1c0.1-0.2,0.1-0.4,0.1-0.6c0-0.1,0-0.2,0-0.3c0-0.1,0-0.2,0-0.4
		C89.9,4.1,90,3.8,90,3.3s0.1-1.1,0.1-1.8h1.4c0.1,1,0.2,2,0.2,3c0,0.7,0,1.5-0.1,2.4c-0.1,0.9-0.1,1.5-0.1,1.6c0,0.5,0.1,1,0.2,1.3
		c0.1,0.4,0.3,0.7,0.7,1c-0.3,0.2-0.6,0.3-0.7,0.4c-0.1,0.1-0.2,0.3-0.2,0.7c0,0.5,0.1,0.8,0.4,1c0.2,0.2,0.4,0.3,0.5,0.4
		c-0.2,0.2-0.5,0.4-0.7,0.5c-0.1,0.1-0.1,0.2-0.1,0.3v0.4c0,0.5,0.1,0.8,0.2,0.9c0.2,0.1,0.4,0.2,0.6,0.4c-0.2,0-0.4,0-0.6,0
		s-0.3,0-0.4,0c-0.2,0-0.4,0.1-0.4,0.3c-0.2,0.5-0.3,1.1-0.5,1.6c0.1,0.1,0.2,0.2,0.2,0.3c0,0,0.1,0.1,0.2,0.3
		c0.2-0.1,0.4-0.3,0.6-0.5c0.2,0.1,0.3,0.2,0.4,0.3S92.2,18.1,92.4,18.2z M81.2,14.6c0,0.3,0,0.4,0.1,0.4c0.1,0,0.2-0.1,0.2-0.3
		c0-0.1,0-0.1-0.1-0.1c0,0-0.1,0-0.2,0.1v-1.4c0.1,0.1,0.3,0.2,0.4,0.3c0,0,0.1,0,0.1,0.1c-0.1,0-0.1-0.1-0.2-0.1
		c-0.1,0-0.2,0.1-0.2,0.2C81.2,14,81.2,14.2,81.2,14.6z M89.7,10.3V9.2c-0.1,0-0.1-0.1-0.2-0.1c-0.1,0-0.1,0-0.1,0
		c0,0-0.1-0.1-0.3-0.4c0,0-0.1,0.1-0.1,0.1S88.7,8.9,88.6,9c0.1-0.3,0.1-0.6,0.2-0.8h-4.3c-0.1,0.5-0.3,0.9-0.6,1.4
		c-0.2,0.3-0.3,0.5-0.4,0.8H89.7z M89.7,12.8c0-0.2,0-0.3,0-0.4c0-0.1,0-0.2,0-0.4v-0.8h-6c0,0.3,0,0.6,0,0.9c0,0.2,0,0.5,0,0.8
		c0.8,0,1.6,0,2.4,0s1.5,0,2.3,0C89.2,12.8,89.6,12.8,89.7,12.8z M89.7,14.7h-1l0.4-0.8c-0.5-0.1-1.4-0.2-2.8-0.2s-2.3-0.1-2.6-0.1
		c0,0.2,0,0.5,0,0.9c0,0.1,0,0.2,0,0.3c0,0.1,0,0.2,0,0.4h5.8C89.5,15,89.6,14.8,89.7,14.7c0-0.2,0-0.6,0-1.1
		c-0.1,0.2-0.1,0.3-0.1,0.5C89.6,14.3,89.6,14.5,89.7,14.7z M87.4,16.1c-0.4,0-0.7,0-1.1,0.1c-0.4,0-0.6,0.1-0.8,0.1
		c-0.2,0-0.6,0-1-0.1c0.1,0.1,0.1,0.2,0.2,0.2c0,0,0,0.2,0.1,0.3l-0.6-0.3c0.4,0.3,0.7,0.4,0.9,0.5c0.2,0.1,0.3,0.1,0.5,0.1
		c0.1,0,0.3-0.1,0.7-0.2s0.6-0.2,0.8-0.2c-0.1-0.1-0.2-0.3-0.2-0.6c0.2,0,0.3,0.1,0.4,0.1C87.2,16.1,87.3,16.1,87.4,16.1z M89,16.1
		h-1c0.1,0,0.2,0,0.3,0c0.1,0,0.2,0,0.3,0c0,0.2-0.1,0.3-0.1,0.5c0,0.1-0.1,0.3-0.1,0.4c-0.1-0.1-0.3-0.1-0.4-0.3
		c-0.1-0.1-0.2-0.2-0.4-0.3c0,0,0,0,0,0.1c0,0.1-0.1,0.2-0.2,0.5c0.1,0,0.4,0.1,0.7,0.2c0.1,0,0.1,0,0.3,0.1c0.2,0,0.3-0.1,0.4-0.4
		C88.9,16.6,89,16.3,89,16.1z"/>
	<path class="st0" d="M94.1,16.6c-0.1,0.1-0.1,0.3-0.2,0.4c-0.1,0.1-0.2,0.3-0.2,0.4C93.8,17.1,93.9,16.9,94.1,16.6z M104.6,9.5
		c-0.1,0-0.2,0-0.4,0c-0.2,0-0.4,0-0.6,0c-0.4,0-0.7,0-1,0.1c-0.7,0.2-1.1,0.3-1.1,0.3c0,0.2,0,0.4-0.2,0.8s-0.4,0.7-0.7,1
		c0.2,0.1,0.4,0.2,0.5,0.2s0.3,0.1,0.4,0.1c-0.9,0.3-1.4,0.6-1.5,1c-0.2,0.5-0.5,0.8-0.9,1.1c0.2,0.2,0.3,0.4,0.5,0.6
		c0.1,0,0.4,0,1,0c-0.4,0.1-0.8,0.1-1.2,0.2c-0.4,0.1-0.9,0.1-1.5,0.1c0,0.3,0,0.6-0.1,0.6s-0.1,0.3-0.2,0.6c0.3,0.2,1,0.4,2.1,0.6
		c1.1,0.2,2.5,0.3,4.1,0.3c0,0.1,0,0.2,0.1,0.4c0,0,0.1,0.1,0.1,0.2c0,1-1.9,1.5-5.6,1.5c-1.3,0-2.3-0.1-3-0.2
		c-0.6-0.2-1.1-0.5-1.5-0.9c0.2-0.5,0.4-0.8,0.5-1c0.2-0.4,0.5-0.8,1-1.4c-0.1-0.1-0.1-0.3-0.1-0.4c0-0.1,0-0.1,0-0.2
		c0,0,0-0.1-0.1-0.1c-0.1-0.1-0.3-0.2-0.4-0.3c0.5,0,0.8,0,0.9,0c0.1,0,0.2,0,0.3-0.1c0.4-0.5,0.7-0.9,1.1-1.4v-1.2h-1.8h0.4
		c0.4,0,0.7,0,0.9-0.1c0.2-0.1,0.5-0.2,0.9-0.5c-0.1,0-0.2,0.1-0.3,0.2c-0.1,0.1-0.1,0.1-0.2,0.1c0.6,0,1-0.1,1.2-0.4
		c0.1-0.1,0.2-0.2,0.3-0.2c0.2,0,0.3-0.1,0.3-0.2c0.1-0.1,0.1-0.3,0.1-0.5c0-0.2,0-0.3,0-0.5c0-0.2-0.1-0.4-0.2-0.6
		c0.6-0.2,1.1-0.6,1.4-1.1c0.1-0.1,0.2-0.5,0.4-1.2c-1,0-1.8,0-2.4,0c-0.6,0-1.2,0-1.8-0.1c-0.2,0-0.4,0-0.6,0s-0.5,0-0.7,0.1V5
		C95.4,5,96,4.8,97.1,4.7c1.4-0.2,2.7-0.3,3.8-0.3c1.1,0,1.9,0.2,2.4,0.6c0.4,0.3,0.6,0.8,0.6,1.5l-1.5,2.4c0.1,0.1,0.3,0.1,0.5,0.2
		c0.2,0.1,0.4,0.1,0.5,0.1c0.2,0,0.3,0,0.4-0.1c0,0,0.1-0.1,0.1-0.2c0,0.1,0,0.1,0,0.1C104,9.2,104.3,9.3,104.6,9.5z"/>
</g>
</svg>
