<svg version="1.1" id="Calque_1" xmlns="http://www.w3.org/2000/svg" xmlns:xlink="http://www.w3.org/1999/xlink" x="0px" y="0px"
	 viewBox="0 0 300 100" style="enable-background:new 0 0 300 100;" xml:space="preserve">
<style type="text/css">
	.st0{fill:#FFFFFF;stroke:#FFFFFF;stroke-width:2;stroke-miterlimit:10;}
</style>
<g>
	<path class="st0" d="M46.4,54.8h-3.3c0,0.7,0,1.2-0.1,1.7c-0.1,0.4-0.2,1-0.4,1.5l2.7,1.7c-1.4,0.2-2.3,0.6-2.7,1.2
		c-0.3,0.6-0.8,0.9-1.4,0.9c-1,0-1.8-0.2-2.1-0.5c-0.3-0.3-0.5-0.7-0.5-1.3c0-0.2,0-0.6,0.1-1.1c0.1-0.5,0.1-0.8,0.1-1
		c0-0.8-0.2-1.4-0.5-1.9c-0.4-0.7-1.1-1.2-2.1-1.7c0.5-0.1,0.8-0.3,1-0.4s0.6-0.3,1.1-0.7l-0.5-3.3h-6.5c-0.1,0.8-0.1,1.4-0.2,1.8
		c-0.1,0.4-0.1,0.7-0.1,0.7c0,0.2,0.1,0.4,0.3,0.5c0.4,0.2,0.8,0.5,1,0.8c-0.5,0.8-0.8,1.3-1,1.5c-0.2,0.3-0.4,0.5-0.6,0.7
		c0.1,0,0.2,0.3,0.4,0.9c0.1,0.6,0.2,1.3,0.2,2.3c0.8-0.2,1.3-0.3,1.6-0.4c0-0.1,0-0.1,0.1-0.2c-0.4,0-0.9,0.5-1.6,1.4
		c-0.7,0.9-1.6,1.4-2.7,1.4c-0.9,0-1.6-0.2-1.9-0.6c-0.3-0.4-0.5-1-0.5-1.9c0-0.1,0.1-0.9,0.2-2.3c0-0.6,0.1-1.1,0.1-1.7h-4.3v-0.5
		h3.7c0-0.1,0.1-0.3,0.3-0.6c0.2-0.3,0.2-0.8,0.2-1.5c0-1,0-1.5-0.1-1.7c0-0.2-0.2-0.3-0.4-0.3c-0.2,0-0.5,0-0.6,0
		c-0.3,0-0.6-0.1-1-0.2c0.2-0.1,0.4-0.3,0.6-0.4c0.1-0.1,0.2-0.1,0.2-0.1c0.2,0,0.4,0,0.6,0c0.2,0,0.5,0,0.7,0v-4.3h-7.6V46v0.5
		c0,0.6,0,1-0.1,1.3c-0.1,0.4-0.3,0.7-0.4,1.1c0.8,0.2,1.4,0.4,2,0.5c0.6,0.1,1,0.1,1.4,0.1c0.2,0,0.5,0,0.7,0s0.5,0,0.7,0
		c-1.1,0.4-1.9,0.6-2.5,0.6c-0.3,0-0.7,0-1.2-0.1c-0.1,0.5-0.2,1-0.4,1.5C19,51.9,19,52.2,19,52.3c0,0.3,0.1,0.6,0.4,0.7
		c0.1,0.1,0.5,0.3,1.2,0.7c-0.8,0.8-1.3,1.4-1.5,1.7c-0.2,0.4-0.3,0.8-0.3,1.4c0,0.5,0,0.8,0,1.1c0.1,1.5,0.2,2.6,0.2,3.3h-4.3
		c-0.8-1-1.2-1.5-1.2-1.5c-0.4-0.4-0.8-0.6-1.2-0.6c-0.1,0-0.3,0-0.7,0c-0.3,0-0.5,0-0.6,0h2.7c0.1-0.1,0.2-0.2,0.2-0.3
		c0.1-0.2,0.2-0.8,0.2-1.6c0-1.3-0.5-2.1-1.6-2.6c-0.6-0.2-1.7-0.4-3.2-0.4H10c1,0,1.7,0,2.2-0.1c0.5-0.1,1.1-0.2,1.9-0.4v-3.3
		c-0.7-0.2-1.6-0.4-2.7-0.6c-1.1-0.2-1.8-0.4-2.1-0.5h4.8c0-0.3,0.1-0.6,0.2-0.9c0.2-0.5,0.4-0.9,0.4-1.1c0-1.5-0.8-2.2-2.3-2.4
		c-1.5-0.1-2.6-0.3-3.1-0.6h4.5c0.1-0.6,0.2-1.4,0.3-2.6s0.1-2,0.1-2.5c0-1.4-0.1-2.6-0.4-3.5h11.7c0.6,0.5,1.1,0.8,1.4,1
		c1,0.7,1.8,1,2.4,1c0.7,0,1.6-0.3,2.8-1c1.2-0.7,2.5-1,3.9-1c0.2,0,0.5,0,0.9,0c0.3,0,0.6,0,0.7,0c0.6,0,1,0.1,1.3,0.4
		c0.3,0.3,0.7,0.9,1.2,1.8c0.7-0.1,1.2-0.5,1.6-1c0,0.5-0.1,0.8-0.3,1c-0.1,0-0.2,0.1-0.3,0.1c0,0.6,0.2,1.1,0.5,1.6
		c0.3,0.5,0.9,0.9,1.6,1.2c0,0.1-0.1,0.3-0.3,0.6c-0.2,0.3-0.2,0.6-0.2,1c0,1.2,0.5,2,1.6,2.2s1.8,0.4,2.1,0.5h-2.7
		c-0.2,0.4-0.3,0.7-0.4,0.9c-0.2,0.4-0.2,0.8-0.2,1c0,1.5,0.4,2.3,1.4,2.5c0.9,0.1,1.5,0.3,1.9,0.5c-0.7,0.1-1.4,0.2-2.1,0.3
		c-0.8,0.2-1.2,0.8-1.2,1.9c0,1,0.3,1.7,1,2C44.9,54.3,45.7,54.6,46.4,54.8z M25.9,44.1v-2.2l-1.6-2.1c-0.9,0.5-1.6,0.8-2.1,1
		c-0.4,0.2-0.9,0.4-1.6,0.6c0.6,0.3,0.9,0.5,1,0.8c0,0.2,0,0.3,0,0.3c-0.3,0-0.6-0.1-0.9-0.1c-0.2,0-0.4,0-0.6,0
		c-0.3,0-0.5,0.1-0.6,0.1c0.2,0.5,0.3,0.7,0.4,0.8c0,0.1,0.1,0.3,0.2,0.8H25.9z M24.9,59.7c-0.3,0-0.6-0.1-0.9-0.1
		c-0.2-0.1-0.5-0.3-0.7-0.4c0.4,0,0.7,0,0.9,0.1S24.5,59.5,24.9,59.7z M38.3,44.1v-2.2l-1-1c-0.1,0.3-0.2,0.5-0.2,0.7
		c0,0-0.1,0.1-0.2,0.1c-0.2,0-0.4,0.1-0.6,0.2v-1.6c-1,0.4-1.7,0.7-1.9,0.7c-0.8,0.2-1.6,0.4-2.3,0.4c-0.3,0-0.5,0-0.6,0v2.7
		c0.6,0,1.2,0,1.7-0.1c1.5-0.1,2.4-0.2,2.6-0.2c0.6,0,1.1,0,1.3,0C37.1,43.9,37.6,43.9,38.3,44.1z M37.8,48.9c0.1-1,0.2-1.6,0.2-1.8
		c0-0.1,0-0.3-0.1-0.5c-0.1-0.5-0.2-0.8-0.2-0.8h-6.5v2.7c1.7,0.4,3,0.7,4.1,1c0.4,0.1,0.7,0.1,0.8,0.1c0-0.1,0.2-0.2,0.4-0.3
		C36.9,49,37.3,48.9,37.8,48.9z M34.6,55.3c-0.3-0.2-0.6-0.5-1-0.7c0-0.1-0.1-0.2-0.1-0.3c0.3,0.1,0.5,0.3,0.7,0.5
		C34.3,54.8,34.4,55,34.6,55.3z"/>
	<path class="st0" d="M49.3,41.4c0.1,0.2,0.2,0.5,0.3,0.7c0.1,0.3,0.1,0.5,0.2,0.8C49.6,42.4,49.4,41.9,49.3,41.4z M75.4,58.5
		c-0.5-0.1-1.2-0.2-1.9-0.4c0.4-0.6,0.7-1.2,0.9-1.7c0.6-1.3,1-2.1,1.2-2.5c0.1,0.4,0.2,0.8,0.2,1c0,0.3-0.1,0.6-0.2,1.1
		c0.3-0.7,0.6-1.2,0.8-1.4c0.1-0.1,0.3-0.3,0.8-0.7v-9.4c-1-1.1-1.9-2.3-2.7-3.6c-0.8-1.4-1.5-2.6-2.1-3.7c-0.7,0-1.3-0.2-1.9-0.5
		c-1.2-0.7-3-1-5.5-1c-5.8,0-9.7,1.2-11.8,3.6c-2.2,2.5-3.3,7.3-3.3,14.2c0.1,0,0.2,0.1,0.3,0.1c0.2,0.1,0.3,0.5,0.3,1
		c0.5,0,1.1,0.6,2,1.8c1.1,1.5,2.3,2.6,3.7,3.3c2.3,1.2,5.3,1.7,9.3,1.7c2.9,0,4.7-0.4,5.2-1.3s2.7-1.3,6.6-1.3
		C76.5,58.6,75.9,58.6,75.4,58.5z M70.8,53.1c-0.3-0.1-0.6-0.2-1-0.2c-0.1,0.4-0.1,0.7-0.1,0.9c0,0.2,0,0.4,0,0.6c0,0.2,0,0.3,0,0.4
		s0.1,0.2,0.1,0.4c0,0.5-0.5,1-1.4,1.4c-0.8,0.3-1.6,0.5-2.5,0.5c-3,0-5.1-0.1-6.3-0.4c-1.7-0.4-2.6-1.3-2.6-2.6
		c0-0.5,0.1-1,0.3-1.7c-0.5,0.2-0.8,0.3-1,0.4c0,0-0.1,0.1-0.2,0.1c-0.2-1.6-0.4-2.8-0.5-3.7c-0.3-2.7-0.5-4.9-0.5-6.3
		c0-0.7,0.9-1.5,2.7-2.2c1.4-0.6,3.3-0.9,5.7-0.9c0.5,0,1,0,1.4,0c0.4,0,0.9,0,1.3,0c1.1,0,2,0.1,2.4,0.4c0.5,0.3,0.9,0.9,1.2,1.8
		c-0.1,0.3-0.2,0.5-0.3,0.7c-0.1,0.2-0.1,0.5-0.2,0.9c0.6-0.1,1-0.1,1.1-0.1c0.2,0,0.5,0,1,0.1v10C71.2,53.3,71,53.2,70.8,53.1z"/>
	<path class="st0" d="M108.1,54.2c-0.3,1.2-0.5,2.1-0.6,2.8c-0.5,2.1-1,3.6-1.4,4.5h-2.1c-0.3-0.6-0.5-1-0.6-1.2
		c-0.2-0.5-0.4-1-0.4-1.4v-14h-14c-0.1,0.1-0.2,0.3-0.4,0.4c-0.5,0.5-0.7,1.1-0.7,1.9c0,0.6,0.2,1.1,0.7,1.5
		c0.2,0.2,0.7,0.5,1.4,0.9c-0.8,0.2-1.2,0.3-1.5,0.4c-0.2,0.1-0.6,0.3-1.2,0.7v2.6c0.7,0.3,1.2,0.4,1.4,0.5c0.5,0.2,0.9,0.3,1.2,0.5
		c-0.7,0-1.1,0-1.2,0.1c-0.2,0-0.6,0.2-1.4,0.4v3.2c0.5,0.2,0.8,0.3,0.9,0.4c0.1,0.1,0.2,0.1,0.3,0.2c0.1,0,0.2-0.1,0.4-0.2
		c0.4-0.2,0.7-0.3,1-0.4c-0.3,0.2-0.7,0.5-1,0.7c-0.3,0.2-0.7,0.3-1.1,0.3c-0.4,0-0.6,0.1-0.6,0.4c0,0.2,0.1,0.5,0.4,0.9
		c0,0.1,0.1,0.2,0.2,0.3c-0.1,0-0.2,0-0.2,0c-0.4,0.1-0.8,0.4-1.3,1c-0.7-0.3-1.5-0.8-2.5-1.5c-0.6-0.4-1.2-0.6-1.7-0.6
		c0.1-0.7,0.1-1.2,0.1-1.5c0-0.3,0-0.5,0-0.5c0-0.1,0-0.2,0.1-0.3c0.3-0.5,0.6-1.1,1-1.8c-0.7-0.5-1.4-0.8-2.1-1
		c0.7-0.4,1.2-0.7,1.4-0.9c0.4-0.3,0.6-1,0.6-2c0-0.7-0.1-1.2-0.2-1.5c-0.1-0.3-0.3-0.4-0.6-0.4c-0.4,0.1-0.7,0.1-0.9,0.1
		c-0.1,0-0.3,0-0.3,0c0.8-0.4,1.5-0.8,2.1-1v-3.6H81c0.6-0.6,1.3-1.1,1.9-1.7c0.1-1.5,0.3-3.9,0.7-7.2c2.5,0,4.5,0,5.9-0.1
		c1.4-0.1,3-0.1,4.6-0.2c1,0,1.8,0,2.5,0.1c0.9,0.1,1.5,0.2,2.1,0.2c1.2,0.1,2.2,0.4,2.8,0.8c0.4,0.4,0.9,0.8,1.4,1.3
		c0.2,0,0.4-0.1,0.7-0.3c0.1-0.1,0.4-0.3,0.9-0.6c0.1,0.2,0.3,0.5,0.5,0.8c0.2,0.3,0.4,0.6,0.6,0.8l-1-1c0,0.2,0.3,1.2,0.9,2.9
		c0.8,2.2,1.4,4.2,1.7,5.9C107.7,49.2,108.1,51.8,108.1,54.2z M102.3,44.3c-0.4-0.6-0.7-1.1-1.1-1.7c-0.7-1-1.4-1.8-2-2.5
		c0.3,0.7,0.4,1.4,0.5,2.1c-0.7-0.4-1.2-1-1.6-1.7c-0.1-0.3-0.9-0.4-2.3-0.4c-1.1,0-2,0.3-2.9,1c-0.7,0.6-1.3,1.1-2,1.6v-1.6
		c0.2,0,0.3-0.1,0.4-0.2c0.2-0.2,0.4-0.4,0.6-0.8c-0.7,1.1-1.2,1.9-1.6,2.3c-0.4,0.4-0.7,0.8-1.1,1.3c0.6,0,1.4,0.1,2.5,0.2
		c1.1,0.1,2.6,0.1,4.7,0.2C98.6,44.3,100.5,44.3,102.3,44.3z"/>
	<path class="st0" d="M130.6,59c-0.8,0.7-1.5,1.3-2.1,2c-0.2,0.2-0.4,0.5-0.6,0.7c-0.1,0-1.2-0.1-3.3-0.3c-3.4-0.3-5.6-0.5-6.4-0.6
		c-2.3-0.2-3.7-0.4-4.1-0.5c-0.1-0.1-0.2-0.2-0.2-0.2c-0.2-0.2-0.2-0.4-0.2-0.6c0-0.6,0.3-1,0.8-1.2c0.5-0.2,1.3-0.3,2.2-0.3
		c0.3,0,0.7,0,1.3,0c0.6,0,1,0,1.3,0c0-0.2,0.1-0.4,0.1-0.5c0-0.1,0.1-0.2,0.1-0.2c0,0,0-0.1-0.1-0.2c-0.2-0.2-0.4-0.4-0.6-0.6
		c0.3,0,0.5-0.1,0.7-0.1s0.4-0.1,0.7-0.3c-0.2-0.2-0.4-0.4-0.4-0.5c-0.1-0.1-0.1-0.2-0.1-0.5l-1.4-0.4h-3.7h5c0-0.7,0-1.3,0.1-1.7
		c0.2-1.3,0.4-2,0.4-2.3l-1.4,0.3c1-1.5,1.5-2.5,1.5-3.2c0-0.8-0.8-1.3-2.3-1.4c-0.5,0-1.6-0.1-3.2-0.1c1.9,0,3,0,3.3,0
		c1.4-0.1,2.2-0.6,2.2-1.5c0-0.6-0.3-1.6-0.9-3l0.4,0.9c0.1-0.2,0.2-0.4,0.2-0.6c0.2-0.5,0.2-1.1,0.2-1.7c0-0.5,0-1,0-1.6
		c0-0.6,0-1.2,0-1.8c0-1.1-0.3-1.8-0.8-2.1c-1.3-0.5-2.8-1.1-4.3-1.9c0.4-0.6,0.9-1.2,1.3-1.8c0.4-0.3,1.5-0.5,3.3-0.5
		c0.3,0,0.5,0,0.8,0c0.3,0,0.5,0,0.8,0c0.8,0,1.4,0.1,1.8,0.4c0.4,0.2,0.6,0.7,0.8,1.5c0.1,0.8,0.2,1.6,0.3,2.5
		c0.1,0.9,0.1,1.6,0.1,2.3c0,0.9-0.1,2.3-0.2,4.2c-0.1,1.9-0.2,3.5-0.2,4.8c0.7,0,1.9,0,3.6,0c1.7,0,2.8,0,3.3,0
		c-2.2,0-3.9,0.2-5.1,0.4c-1.2,0.2-1.8,0.7-1.8,1.4c0,0.8,0.3,1.4,0.8,1.9c0.2,0.1,0.8,0.4,1.9,0.9c-0.5,0-1,0-1.4,0.1
		c-0.4,0.1-0.9,0.2-1.3,0.3v6c0.6,0.1,1.9,0.3,3.8,0.6C128.4,58.4,129.4,58.6,130.6,59z"/>
	<path class="st0" d="M133.8,41.4c0.1,0.2,0.2,0.5,0.3,0.7c0.1,0.3,0.1,0.5,0.2,0.8C134,42.4,133.9,41.9,133.8,41.4z M159.8,58.5
		c-0.5-0.1-1.2-0.2-1.9-0.4c0.4-0.6,0.7-1.2,0.9-1.7c0.6-1.3,1-2.1,1.2-2.5c0.1,0.4,0.2,0.8,0.2,1c0,0.3-0.1,0.6-0.2,1.1
		c0.3-0.7,0.6-1.2,0.8-1.4c0.1-0.1,0.3-0.3,0.8-0.7v-9.4c-1-1.1-1.9-2.3-2.7-3.6c-0.8-1.4-1.5-2.6-2.1-3.7c-0.7,0-1.3-0.2-1.9-0.5
		c-1.2-0.7-3-1-5.5-1c-5.8,0-9.7,1.2-11.8,3.6c-2.2,2.5-3.3,7.3-3.3,14.2c0.1,0,0.2,0.1,0.3,0.1c0.2,0.1,0.3,0.5,0.3,1
		c0.5,0,1.1,0.6,2,1.8c1.1,1.5,2.3,2.6,3.7,3.3c2.3,1.2,5.3,1.7,9.3,1.7c2.9,0,4.7-0.4,5.2-1.3s2.7-1.3,6.6-1.3
		C160.9,58.6,160.3,58.6,159.8,58.5z M155.2,53.1c-0.3-0.1-0.6-0.2-1-0.2c-0.1,0.4-0.1,0.7-0.1,0.9s0,0.4,0,0.6c0,0.2,0,0.3,0,0.4
		s0.1,0.2,0.1,0.4c0,0.5-0.5,1-1.4,1.4c-0.8,0.3-1.6,0.5-2.5,0.5c-3,0-5.1-0.1-6.3-0.4c-1.7-0.4-2.6-1.3-2.6-2.6
		c0-0.5,0.1-1,0.3-1.7c-0.5,0.2-0.8,0.3-1,0.4c0,0-0.1,0.1-0.2,0.1c-0.2-1.6-0.4-2.8-0.5-3.7c-0.3-2.7-0.5-4.9-0.5-6.3
		c0-0.7,0.9-1.5,2.7-2.2c1.4-0.6,3.3-0.9,5.7-0.9c0.5,0,1,0,1.4,0c0.4,0,0.9,0,1.3,0c1.1,0,2,0.1,2.4,0.4c0.5,0.3,0.9,0.9,1.2,1.8
		c-0.1,0.3-0.2,0.5-0.3,0.7c-0.1,0.2-0.1,0.5-0.2,0.9c0.6-0.1,1-0.1,1.1-0.1c0.2,0,0.5,0,1,0.1v10C155.6,53.3,155.4,53.2,155.2,53.1
		z"/>
	<path class="st0" d="M194.1,61.8c-1.5,0.8-2.4,1.5-2.6,2.2c0,0.1,0,0.2,0,0.4c-0.7,0-1,0.1-1,0.4c0,0.1,0.1,0.4,0.2,0.6
		c0.5,0.9,0.7,1.4,0.8,1.6c-0.2,0.1-0.5,0.3-0.7,0.4c-0.3,0.2-0.4,0.5-0.4,0.8c0,0.2,0,0.3,0.1,0.4l-1-0.6c-0.3,0.7-0.6,1.3-0.7,1.8
		c-0.2,0.8-0.4,1.6-0.4,2.5c-6.7,0.2-10.8,0.2-12.3,0.2c-0.9,0-1.7,0-2.3-0.1c-0.6-0.1-1.1-0.1-1.5-0.2c-1-0.1-2-0.8-3.1-2
		c-0.7-0.9-1.3-1.4-1.7-1.7V66c0.3,0,0.7,0,1.1,0c0.4,0,0.6,0,0.8,0c0.4,0,0.8,0.1,1.2,0.2s1,0.4,1.8,0.9h12c1-0.8,1.8-1.4,2.3-1.9
		c0.5-0.4,1-0.9,1.4-1.3c-0.1-0.2-0.2-0.5-0.3-0.7c-0.1,0.1-0.4,0.2-0.7,0.2c0.1-0.1,0.2-0.2,0.3-0.2c0.2-0.3,0.3-0.7,0.3-1.3h-18.4
		c0.4,0,0.8,0,1.1,0c0.3,0,0.6,0,0.9,0c0.5,0,0.8,0,1.1-0.1s0.8-0.2,1.6-0.5c-0.8-0.7-1.3-1.1-1.7-1.3c-0.3-0.2-0.6-0.3-0.8-0.3
		c-0.1,0-0.3,0.1-0.6,0.3c-0.3,0.2-0.7,0.3-1.1,0.3c0.1-0.2,0.1-0.3,0.1-0.5c0-0.4-0.2-0.8-0.5-1.2c-0.5-0.6-1.2-1.1-2.2-1.5V45.5
		c0.3-0.4,0.9-1.3,1.9-2.9c0.7-1.1,1.5-2.2,2.3-3.4c-0.1,0.3-0.1,0.6-0.1,0.9c0,0.2,0,0.5,0.1,0.7c0.9-0.9,1.7-1.6,2.5-2
		c0.7-0.4,1.4-0.6,2-0.6c0.4,0,0.9,0.1,1.6,0.3c0.7,0.2,1.2,0.3,1.5,0.3c0.4,0,0.9-0.1,1.4-0.2c0.4-0.2,1-0.5,1.6-0.9
		c-0.5,0.1-0.8,0.3-1.1,0.6c1.8,0.7,3.3,1.2,4.7,1.6c1.1,0.3,2,0.4,2.7,0.4c0.5,0,0.9-0.1,1.2-0.2c0.2-0.2,0.3-0.2,0.3-0.2l-1.1,1.1
		c1.4,1.5,2.5,3.1,3.4,4.9c0.5,1,1.3,1.6,2.4,1.9c-0.5,0.3-0.8,0.5-1.1,0.5c-0.4,0-0.7,0.1-1,0.1v3.7c0.5,0.2,0.8,0.3,0.8,0.3
		c0.3,0.1,0.8,0.2,1.3,0.2c-0.4,0.2-0.7,0.4-0.9,0.4s-0.4,0.1-0.6,0.1H192v3.7c0.7,0.3,1.4,0.5,2.1,0.5c-0.6,0.2-1.2,0.5-1.8,0.7
		c-0.2,0.2-0.4,0.7-0.4,1.5c0,0.8,0.1,1.3,0.4,1.6C192.5,61,193.1,61.4,194.1,61.8z M186.7,47.1v-1.6c-0.5-0.3-0.9-0.7-1.4-1.2
		c-0.4-0.5-0.7-0.8-0.8-0.9c-0.3,0.2-0.5,0.4-0.6,0.5c-0.2,0.1-0.5,0.3-0.9,0.6c0-0.2,0.1-0.3,0.1-0.5c0.1-0.4,0.3-0.8,0.5-1.2h-9.5
		c-0.4,0.7-0.6,1-0.6,1.1c-0.3,0.4-1,1.1-2,2.1c0.3,0.1,0.6,0.1,0.7,0.1c0.1,0,0.3,0,0.4,0c0,0,0.1,0.1,0.1,0.2
		c0,0.1,0.2,0.4,0.4,0.7H186.7z M187.3,51.8v-3.7c-0.6,0.2-1.2,0.4-1.9,0.5c-0.7,0.1-1.3,0.2-1.8,0.2c-0.7,0-1.4-0.1-2.1-0.2
		c-0.7-0.1-1.4-0.3-2.1-0.4c-0.3,0-0.6,0-0.9,0c-0.3,0-0.6,0-0.9,0c-2.4,0-4.1,0.3-4.9,1c-0.7,0.6-1.1,1.5-1.1,2.7
		c0,2,0.8,3.3,2.4,4c1.1,0.5,3.1,0.7,6,0.7c2,0,3.5-0.1,4.3-0.4c1.4-0.5,2.3-1.6,2.5-3.3c-0.1,0.3-0.3,0.5-0.4,0.6
		c-0.1,0.1-0.3,0.2-0.6,0.5c-0.5-0.4-1-0.7-1.6-0.9c-0.6-0.2-1.3-0.2-2.2-0.2c-0.5,0-1.2,0-2.1,0.1c-0.9,0.1-1.5,0.1-1.7,0.1
		c-1,0-1.9-0.1-2.6-0.2s-1.5-0.4-2.3-0.9H187.3z M187.8,70.7c-0.3-0.1-0.5-0.1-0.8-0.2c-0.3-0.1-0.5-0.2-0.8-0.3
		c0.2,0.1,0.5,0.1,0.8,0.2C187.1,70.5,187.4,70.6,187.8,70.7z M187.8,70.7c-0.5-0.1-0.9-0.3-1.4-0.4c-0.1,0-0.1-0.1-0.2-0.1
		c0.4,0.1,0.8,0.2,1.1,0.3C187.6,70.6,187.7,70.7,187.8,70.7z"/>
	<path class="st0" d="M227.5,53.6c-0.4,0.3-0.9,0.7-1.3,1c-0.3,0.5-0.4,1.8-0.4,4c-0.2,0-0.4,0.1-0.5,0.1c-0.2,0-0.4,0-0.7,0
		c-0.3,0-0.4,0-0.4,0c-1.3,0-2.1,0.5-2.5,1.4c-0.1,0.3-0.2,0.8-0.3,1.4h-17.1c-0.3-0.8-0.6-1.3-0.7-1.5c-0.2-0.2-0.3-0.4-0.5-0.4
		c-0.1,0-0.2,0-0.2,0c-0.3,0.1-0.6,0.2-0.7,0.2c-0.2-0.2-0.3-0.5-0.5-0.6c-0.4-0.4-1-1-1.7-1.6l-1.1,1.1V53c1.2-0.1,1.9-0.2,2.3-0.3
		c0.8-0.2,1.5-0.7,2.1-1.3c-0.1,0.3-0.2,0.5-0.2,0.6s-0.1,0.2-0.3,0.5c0.3,0.2,0.6,0.3,0.8,0.3c0.2,0.1,0.5,0.1,0.8,0.2l-1.1,1.1
		c1.5,1.4,3.1,2.4,4.8,2.8c1.1,0.3,2.9,0.4,5.4,0.4c2.4,0,4.9-0.5,7.5-1.6c-0.2-0.6-0.3-1-0.4-1.1c-0.1-0.3-0.4-0.7-0.7-1.1
		c0.2-0.2,0.5-0.3,1-0.3s0.6-0.2,0.6-0.5c0-0.2-0.3-0.9-0.9-2.1c-0.2-0.4-0.4-0.9-0.7-1.5c-0.3,0.1-0.8,0.2-1.3,0.5
		c-0.6,0.2-1,0.4-1.2,0.4c-0.2,0-0.3-0.1-0.3-0.3c0-0.5-1-0.9-3-1.2c-2-0.3-4.1-0.5-6.4-0.5c-1.3,0-2.4,0.1-3.3,0.2
		s-1.4,0.3-1.6,0.5c-0.1-0.3-0.2-0.4-0.2-0.6c0-0.1-0.1-0.2-0.1-0.2c0,0,0-0.1,0.1-0.2c0.1-0.1,0.1-0.4,0.1-0.7
		c0-0.3-0.5-0.9-1.4-1.6c-0.9-0.7-1.4-1.4-1.4-1.9c0-0.7,0.4-2.1,1.1-4.3c0.7-2.2,1.2-3.3,1.5-3.3c0.1,0,0.2,0.2,0.2,0.6h2.2
		c0.1-0.2,0.1-0.5,0.2-0.8c0,0,0-0.1-0.1-0.1c-0.1-0.1-0.3-0.4-0.7-0.7c2.1,0,4.3-0.1,6.3-0.2c2.1-0.1,4.1-0.3,6.2-0.4
		c0.8,0,1.5,0.1,2,0.2c0.5,0.2,1,0.4,1.5,0.9c1.1,1.1,2.2,2.2,3.4,3.2c1.1,0.9,2.4,1.9,3.7,2.9h-7.7c0.1-0.3,0.2-0.5,0.2-0.5
		c0-0.1,0.2-0.3,0.3-0.6c-0.6-0.6-1-1-1.2-1.3c-0.1-0.1-0.6-0.4-1.5-0.9h-10.4c-0.2,0.9-0.5,1.8-0.9,2.7s-0.6,1.9-0.8,2.8
		c0.7-0.1,1.3-0.2,1.6-0.2c0.1,0,0.9,0,2.3,0.1c1.4,0.1,2.8,0.1,4.4,0.1H210c-0.9,0-1.5,0-1.8,0.1c-0.3,0.1-0.8,0.2-1.6,0.5
		c0.7,0.9,1.6,1.5,2.7,1.7c1.9,0.3,6.3,0.5,13.3,0.5c-0.3,0.1-0.5,0.1-0.5,0.2c-0.1,0-0.2,0.1-0.6,0.4c1.2,0.3,2,0.6,2.5,0.7
		c0.9,0.3,1.3,0.8,1.3,1.5c0,0.5,0.3,1.2,0.8,2.2C226.5,52.3,227,53,227.5,53.6z M214.8,63.5c-0.4-0.1-0.7-0.2-1.1-0.3
		c-0.4-0.1-0.8-0.1-1.1-0.2C213.3,63.2,214,63.4,214.8,63.5z M227.5,38.2c-0.2,0.2-0.3,0.4-0.5,0.6c-0.2,0.2-0.4,0.4-0.6,0.6
		c0.2-0.2,0.3-0.4,0.5-0.6C227.1,38.5,227.3,38.3,227.5,38.2z"/>
	<path class="st0" d="M231.3,41.4c0.1,0.2,0.2,0.5,0.3,0.7c0.1,0.3,0.1,0.5,0.2,0.8C231.5,42.4,231.4,41.9,231.3,41.4z M257.3,58.5
		c-0.5-0.1-1.2-0.2-1.9-0.4c0.4-0.6,0.7-1.2,0.9-1.7c0.6-1.3,1-2.1,1.2-2.5c0.1,0.4,0.2,0.8,0.2,1c0,0.3-0.1,0.6-0.2,1.1
		c0.3-0.7,0.6-1.2,0.8-1.4c0.1-0.1,0.3-0.3,0.8-0.7v-9.4c-1-1.1-1.9-2.3-2.7-3.6c-0.8-1.4-1.5-2.6-2.1-3.7c-0.7,0-1.3-0.2-1.9-0.5
		c-1.2-0.7-3-1-5.5-1c-5.8,0-9.7,1.2-11.8,3.6c-2.2,2.5-3.3,7.3-3.3,14.2c0.1,0,0.2,0.1,0.3,0.1c0.2,0.1,0.3,0.5,0.3,1
		c0.5,0,1.1,0.6,2,1.8c1.1,1.5,2.3,2.6,3.7,3.3c2.3,1.2,5.3,1.7,9.3,1.7c2.9,0,4.7-0.4,5.2-1.3s2.7-1.3,6.6-1.3
		C258.4,58.6,257.8,58.6,257.3,58.5z M252.7,53.1c-0.3-0.1-0.6-0.2-1-0.2c-0.1,0.4-0.1,0.7-0.1,0.9s0,0.4,0,0.6c0,0.2,0,0.3,0,0.4
		s0.1,0.2,0.1,0.4c0,0.5-0.5,1-1.4,1.4c-0.8,0.3-1.6,0.5-2.5,0.5c-3,0-5.1-0.1-6.3-0.4c-1.7-0.4-2.6-1.3-2.6-2.6
		c0-0.5,0.1-1,0.3-1.7c-0.5,0.2-0.8,0.3-1,0.4c0,0-0.1,0.1-0.2,0.1c-0.2-1.6-0.4-2.8-0.5-3.7c-0.3-2.7-0.5-4.9-0.5-6.3
		c0-0.7,0.9-1.5,2.7-2.2c1.5-0.6,3.3-0.9,5.7-0.9c0.5,0,1,0,1.4,0c0.4,0,0.9,0,1.3,0c1.1,0,2,0.1,2.4,0.4c0.5,0.3,0.9,0.9,1.2,1.8
		c-0.1,0.3-0.2,0.5-0.3,0.7c-0.1,0.2-0.1,0.5-0.2,0.9c0.6-0.1,1-0.1,1.1-0.1s0.5,0,1,0.1v10C253.1,53.3,252.9,53.2,252.7,53.1z"/>
	<path class="st0" d="M267,52.3c-0.7-0.1-1.3-0.1-1.9-0.2c-0.6-0.1-1.5-0.2-2.8-0.4c0.1,0,0.3,0.1,0.6,0.1c0.3,0,0.9,0.1,2,0.2
		C265.8,52.2,266.6,52.2,267,52.3z M287.1,37.1c-0.3,0.1-0.6,0.3-0.8,0.5c-0.2,0.3-0.4,0.4-0.6,0.4c-0.3,0-1.2-0.7-2.5-2
		c-1.3-1.3-3-2-4.9-2c-0.5,0-1.3,0.6-2.5,1.7c-1.3,1.2-2,2.2-2,3c0,1,0.2,1.6,0.7,1.9c0.3,0.2,0.9,0.3,1.8,0.3h1
		c1.2,0,2.3,0.1,3.2,0.4c1.3,0.5,2.5,1.3,3.7,2.5c-0.4,0-0.7-0.1-0.8-0.2c-0.1-0.1-0.2-0.2-0.2-0.3c-0.5,0.1-1.6,0.2-3.2,0.4
		c-1.6,0.1-3.5,0.2-5.6,0.2c-0.3,2.5-0.5,4.3-0.5,5.4c0,0.6,0.3,1.7,1,3.5c0.3,0.9,0.5,2.2,0.5,3.9c-0.4,0.2-0.8,0.4-1.2,0.5
		c-0.1,0.2-0.4,0.5-0.8,1v2.4c0.7,0.1,1.4,0.1,2.3,0.2c0.9,0.1,1.6,0.2,2.2,0.3c-1.5,0-2.8,0.3-4.1,1c-0.4,0.2-0.8,0.5-1.4,1
		c-1.1,0-1.9-0.1-2.4-0.4c-0.7-0.3-1-1-1-2.1c0-0.2,0-0.4,0-0.6c0-0.2,0-0.4,0-0.6c0-0.6-0.1-1.1-0.2-1.5c-0.2-0.5-0.7-0.9-1.3-1.2
		c1-0.9,1.7-2,2.1-3.2c0.3-1,0.4-2.3,0.4-4c0-2.6-0.4-4.3-1.2-4.9c-0.6-0.5-2.2-0.7-4.8-0.7l-0.5-1.5c0-0.2,0.1-0.4,0.2-0.6
		s0.2-0.5,0.4-0.8c0.5,0,1,0,1.3,0c0.4,0,0.7,0,1,0.1c0.6,0,1.1-0.1,1.4-0.4c0.3-0.2,0.9-0.8,1.6-1.7c-0.1-0.6-0.2-1.1-0.5-1.5
		l-1,1.5c1.1-1.2,2.1-2.6,3.1-4c1.1-1.5,1.8-2.3,2.1-2.3c0.2,0,0.6,0.1,1.2,0.4c0.2-0.4,0.3-0.7,0.4-1c0.1-0.3,0.1-0.6,0.1-0.9h0.8
		c0.9,0,1.7,0,2.2-0.1c0.6-0.1,1.3-0.2,2.4-0.5c0.4,0.1,0.9,0.1,1.3,0.2c1.9,0.5,3.8,2,5.6,4.3V37.1z M279.3,52.3c0,0,0,0-0.2,0.1
		c-0.1,0-0.4,0-0.9,0c-0.4,0-0.7,0-1.1,0c0,0,0.1-0.1,0.2-0.1c0.6-0.1,0.9-0.1,1-0.1C278.5,52.2,278.8,52.2,279.3,52.3z M287.1,61.2
		C287.2,61.2,287.2,61.2,287.1,61.2c-0.1,0.1-0.5,0.1-1,0.1c-1,0-1.7,0-2.3,0s-1,0-1.4-0.1c0.1,0,0.2,0,0.3,0c0.5,0,1,0,1.7,0
		c0.7,0,1.1,0,1.4,0c0.2,0,0.4,0,0.6,0C286.8,61.2,287,61.2,287.1,61.2z M285.2,43.5c-0.1-0.1-0.1-0.2-0.2-0.3
		c-0.1-0.1-0.2-0.4-0.3-0.7c0.1,0.1,0.1,0.2,0.2,0.3C285,43,285.1,43.2,285.2,43.5z"/>
</g>
</svg>
