
<svg id="Calque_1" data-name="Calque 1" xmlns="http://www.w3.org/2000/svg" viewBox="0 0 1000 1000"><defs><style>.cls-1{fill:#006064;}</style></defs><title>LOGO-76</title><path class="cls-1" d="M804.18,687l-41.9,42a14.83,14.83,0,0,1-21,0L447.52,435.66a14.83,14.83,0,0,1,0-21l41.9-42a14.83,14.83,0,0,1,21,0l146.9,146.64a14.83,14.83,0,0,0,21,0h0a14.83,14.83,0,0,0,0-21L531.32,351.72a14.83,14.83,0,0,1,0-21L657,204.84a14.83,14.83,0,0,1,21,0L887.81,414.31a14.83,14.83,0,0,1,0,21l-41.9,42a14.83,14.83,0,0,1-21,0L678.07,330.63a14.83,14.83,0,0,0-21,0h0a14.83,14.83,0,0,0,0,21L804,498.26a14.83,14.83,0,0,1,0,21l-62.85,63a14.83,14.83,0,0,0,0,21l63,62.85A14.83,14.83,0,0,1,804.18,687Z"/><rect class="cls-1" x="791.07" y="548.1" width="88.96" height="88.96" rx="14.83" ry="14.83" transform="translate(-174.14 765.25) rotate(-45.05)"/><rect class="cls-1" x="874.87" y="464.16" width="88.96" height="88.96" rx="14.83" ry="14.83" transform="translate(-90.14 799.92) rotate(-45.05)"/><rect class="cls-1" x="455.31" y="212.91" width="88.96" height="88.96" rx="14.83" ry="14.83" transform="translate(-35.47 429.25) rotate(-45.05)"/><path class="cls-1" d="M510.19,163l63,62.85a14.83,14.83,0,0,0,21,0l41.9-42a14.83,14.83,0,0,0,0-21L510.08,37.23a14.83,14.83,0,0,0-21,0L195.82,331a14.83,14.83,0,0,0,0,21L321.75,477.7a14.83,14.83,0,0,0,21,0l125.7-125.91a14.83,14.83,0,0,0,0-21l-63-62.85a14.83,14.83,0,0,1,0-21L489.22,163A14.83,14.83,0,0,1,510.19,163ZM342.61,351.88h0a14.83,14.83,0,0,1-21,0h0a14.83,14.83,0,0,1,0-21h0a14.83,14.83,0,0,1,21,0h0A14.83,14.83,0,0,1,342.61,351.88Z"/><path class="cls-1" d="M405.6,456.66l-41.9,42a14.83,14.83,0,0,0,0,21L594.56,750a14.83,14.83,0,0,1,0,21L510.78,855a14.83,14.83,0,0,1-21,0h0a14.83,14.83,0,0,1,0-21l62.85-63a14.83,14.83,0,0,0,0-21L426.71,624.38a14.83,14.83,0,0,0-21,0l-62.85,63a14.83,14.83,0,0,1-21,0h0a14.83,14.83,0,0,1,0-21l62.85-63a14.83,14.83,0,0,0,0-21L174.89,373a14.83,14.83,0,0,0-21,0L112,415a14.83,14.83,0,0,0,0,21l146.9,146.64a14.83,14.83,0,0,1,0,21h0a14.83,14.83,0,0,1-21,0L91.09,456.93a14.83,14.83,0,0,0-21,0l-41.9,42a14.83,14.83,0,0,0,0,21L489.92,980.77a14.83,14.83,0,0,0,21,0L720.38,770.9a14.83,14.83,0,0,0,0-21L426.57,456.64A14.83,14.83,0,0,0,405.6,456.66Zm.27,314.51h0a14.83,14.83,0,0,1,0-21h0a14.83,14.83,0,0,1,21,0h0a14.83,14.83,0,0,1,0,21h0A14.83,14.83,0,0,1,405.87,771.17Z"/></svg>
