
<svg id="Calque_1" data-name="Calque 1" xmlns="http://www.w3.org/2000/svg" viewBox="0 0 1920 1080"><defs><style>.cls-1{fill:#006064;}</style></defs><title>new-logo</title><path class="cls-1" d="M626.14,545.86V658.71a7.86,7.86,0,0,1-7.86,7.86h-145a7.86,7.86,0,0,1-7.86-7.86V545.86a7.86,7.86,0,0,0-7.86-7.86H376.86a7.86,7.86,0,0,0-7.86,7.86V755.14a7.86,7.86,0,0,0,7.86,7.86H843.29a7.86,7.86,0,0,0,7.86-7.86V545.86a7.86,7.86,0,0,0-7.86-7.86H634A7.86,7.86,0,0,0,626.14,545.86ZM746.86,666.57H730.43a7.86,7.86,0,0,1-7.86-7.86V642.29a7.86,7.86,0,0,1,7.86-7.86h16.43a7.86,7.86,0,0,1,7.86,7.86v16.43A7.86,7.86,0,0,1,746.86,666.57Z"/><rect class="cls-1" x="497.57" y="538" width="96.43" height="96.43" rx="7.86" ry="7.86"/><rect class="cls-1" x="883.29" y="538" width="96.43" height="96.43" rx="7.86" ry="7.86"/><rect class="cls-1" x="883.29" y="409.43" width="96.43" height="96.43" rx="7.86" ry="7.86"/><path class="cls-1" d="M883.29,288.71v80.71a7.86,7.86,0,0,0,7.86,7.86h498.57a7.86,7.86,0,0,1,7.86,7.86V658.71a7.86,7.86,0,0,1-7.86,7.86h-16.43a7.86,7.86,0,0,1-7.86-7.86V417.29a7.86,7.86,0,0,0-7.86-7.86H1148.29a7.86,7.86,0,0,0-7.86,7.86V658.71a7.86,7.86,0,0,1-7.86,7.86h-16.43a7.86,7.86,0,0,1-7.86-7.86V417.29a7.86,7.86,0,0,0-7.86-7.86h-80.71a7.86,7.86,0,0,0-7.86,7.86V658.71a7.86,7.86,0,0,1-7.86,7.86H891.14a7.86,7.86,0,0,0-7.86,7.86v80.71a7.86,7.86,0,0,0,7.86,7.86h595a7.86,7.86,0,0,0,7.86-7.86V288.71a7.86,7.86,0,0,0-7.86-7.86h-595A7.86,7.86,0,0,0,883.29,288.71Zm377.86,377.86h-16.43a7.86,7.86,0,0,1-7.86-7.86v-145a7.86,7.86,0,0,1,7.86-7.86h16.43a7.86,7.86,0,0,1,7.86,7.86v145A7.86,7.86,0,0,1,1261.14,666.57Z"/><path class="cls-1" d="M594,385.14v16.43a7.86,7.86,0,0,0,7.86,7.86H843.29a7.86,7.86,0,0,1,7.86,7.86V498a7.86,7.86,0,0,1-7.86,7.86H376.86A7.86,7.86,0,0,1,369,498V417.29a7.86,7.86,0,0,1,7.86-7.86H489.71a7.86,7.86,0,0,0,7.86-7.86V288.71a7.86,7.86,0,0,1,7.86-7.86H843.29a7.86,7.86,0,0,1,7.86,7.86v80.71a7.86,7.86,0,0,1-7.86,7.86H601.86A7.86,7.86,0,0,0,594,385.14Z"/><path class="cls-1" d="M416.14,338h0a7.86,7.86,0,0,0,7.86,7.86h47.14a7.86,7.86,0,0,1,7.86,7.86v31.43a7.86,7.86,0,0,1-7.86,7.86H376.86a7.86,7.86,0,0,1-7.86-7.86V290.86a7.86,7.86,0,0,1,7.86-7.86h94.29a7.86,7.86,0,0,1,7.86,7.86v31.43a7.86,7.86,0,0,1-7.86,7.86H424A7.86,7.86,0,0,0,416.14,338Z"/></svg>
