<svg version="1.1" id="Calque_1" xmlns="http://www.w3.org/2000/svg" xmlns:xlink="http://www.w3.org/1999/xlink" x="0px" y="0px"
	 viewBox="0 0 120 66" style="enable-background:new 0 0 120 66;" xml:space="preserve">
<style type="text/css">
	.st0{fill:#FFFFFF;}
</style>
<g>
	<path class="st0" d="M13.7,35c-1.3,0-2,0.1-2.1,0.4c-0.1,0.3-0.8,0.4-1.9,0.4c-0.8,0-1.3-0.1-1.7-0.3c-0.6-0.3-1.1-0.5-1.3-0.5
		c-0.9-0.2-2.2-0.3-4.1-0.3c0.3-0.1,0.5-0.1,0.7-0.2s0.5,0,0.7,0c0.3,0,0.6,0,1,0.1c0.3,0.1,0.7,0.1,1,0.2c0.2,0,0.3-0.1,0.3-0.3
		c0-0.4-0.1-0.8-0.3-1.2c-0.1-0.1-0.2-0.2-0.3-0.4c0-0.1-0.1-0.2-0.2-0.2c-0.1,0-0.2,0-0.4,0.1c0,0-0.1,0-0.1,0.1
		c0.2-0.3,0.3-0.6,0.4-0.8c0.1-0.2,0.1-0.5,0.1-0.7c0-0.1,0-0.2,0-0.3c0-0.1,0-0.2,0-0.2v-2C5.1,29,4.9,29,4.8,29
		c-0.1,0-0.1-0.1-0.2-0.1c0,0-0.1,0-0.2,0c-0.1,0-0.2,0-0.3,0h1.1v-1.7c-0.3,0-0.5,0-0.7,0c-0.2,0-0.3,0-0.5,0c-0.2,0-0.3,0-0.5-0.1
		c-0.2-0.1-0.5-0.3-1-0.6v-0.6c0.4-0.2,0.8-0.3,1.3-0.3c0.4-0.1,0.8-0.1,1.1-0.1c0.1-0.7,0.2-1.4,0.3-2.3c0.1-0.6,0.1-1,0.1-1.2
		c0.3,0,0.5,0,0.6-0.1c0,0,0.1-0.1,0.1-0.1c0.4,0,0.7,0.4,0.9,1.3c0.1,0.5,0.1,1.2,0.1,2.2l0.4,0.4c0.1-0.1,0.2-0.2,0.3-0.2
		c0.2-0.1,0.4-0.3,0.8-0.4c-0.1,0-0.1,0.1-0.2,0.1c0,0.1-0.1,0.2-0.2,0.3c0.4,0.1,0.7,0.2,1,0.2c0.3,0,0.6,0.1,0.9,0.1
		c0.2,0,0.4,0,0.5,0c0.2,0,0.3,0,0.4,0c0.2,0,0.3,0,0.4,0.1c0.1,0.1,0.2,0.2,0.3,0.4c0,0.3,0,0.4,0,0.5c0,0.2,0.1,0.4,0.2,0.6
		c-0.5-0.1-1.2-0.1-2.1-0.2c-0.9,0-1.9,0-2.9,0c0,0.2-0.1,0.8-0.2,1.8c-0.1,0.5-0.1,1-0.1,1.5c0,0.1,0,0.3,0,0.4s0,0.3,0,0.5
		c0,0.8,0.1,1.3,0.2,1.6c0.2,0.5,0.5,0.7,0.9,0.7c0,0.1,0,0.3,0.1,0.3c0.2,0.5,0.7,0.8,1.5,0.8c0.6,0,1-0.1,1.2-0.3
		c0.2-0.2,0.3-0.4,0.3-0.8l0.2-0.6c0.4,0.1,0.7,0.2,1,0.2c0.2,0,0.3,0,0.5,0l-0.2,1.8c0.1,0,0.2,0,0.3,0.1c0,0,0.1,0,0.1-0.1
		c0.1-0.1,0.2-0.2,0.2-0.2C13.5,34.8,13.6,34.9,13.7,35z M6,21.3C6,21.2,6,21.2,6,21.3c0-0.1-0.2-0.1-0.4-0.1c-0.3,0-0.4,0-0.5,0
		c0,0,0,0,0,0c0.2,0,0.3,0.1,0.5,0.1C5.7,21.3,5.8,21.3,6,21.3z M12.8,37h-1.5h1.3c0-0.2,0-0.3,0-0.3c0,0,0.1-0.1,0.2-0.3V37z"/>
	<path class="st0" d="M14.9,30.3c-0.2,0-0.3,0.1-0.4,0.1c0.2,0,0.4-0.1,0.6-0.1s0.5-0.1,0.8-0.2h0c0,0-0.1,0-0.1,0.1
		C15.3,30.2,15,30.2,14.9,30.3z M14.4,37.3h5.4c0,0,0,0,0,0c0,0-0.1,0-0.2,0H14.4z M27,25.4c-0.6-0.6-1.3-1.1-2-1.6l-4.4,0.4
		l-3.9-0.9c0,0-0.3,0.2-0.6,0.4c-0.3,0.2-0.4,0.5-0.4,0.9c0,0.6,0.4,0.9,1.2,0.9c0.8,0,1.2,0.5,1.2,1.4c0,0.1,0,0.3-0.1,0.5
		c-0.1,0.2-0.1,0.3-0.1,0.3c-0.6,0-1,0-1,0.1c0,0,0,0,0,0c0,0-0.1,0-0.2-0.1s-0.2,0-0.3-0.1c0.2,0.1,0.4,0.2,0.6,0.2s0.3,0,0.5,0
		h0.3c0.3,0,0.5,0.1,0.6,0.2s0.1,0.5,0.1,1.1c0,0.2-0.1,0.4-0.2,0.5c-0.3,0.2-0.5,0.4-0.8,0.5H18l-0.3,1.8C17.4,32,17.2,32,17,32
		c-0.2,0-0.7,0.2-1.6,0.6c0.2,0,0.5,0,0.6,0s0.3,0,0.4,0c0.2,0,0.4,0,0.6,0.1c0.1,0,0.4,0.2,1,0.4c-0.1,0.3-0.1,0.5-0.2,0.5
		c0,0.1,0,0.3-0.1,0.5h-2.1c0,0.2-0.1,0.4-0.1,0.7s-0.1,0.5-0.1,0.9c0.3,0,0.6,0.1,1,0.1c0.3,0.1,0.7,0.2,1,0.4
		c0,0.1,0.1,0.1,0.2,0.2c0.1,0,0.2,0.1,0.3,0.1c-0.1,0-0.3-0.1-0.3-0.1c-0.1,0-0.1-0.1-0.2-0.1c0.5-0.1,0.9-0.2,1.3-0.3
		c0.4-0.1,1-0.1,1.6-0.1c0.6,0,1.3,0.1,1.9,0.2c0.4,0.1,0.7,0.1,0.8,0.2c0.1-0.3,0.3-0.5,0.5-0.7c0.1-0.1,0.3-0.3,0.8-0.6
		c-0.6-0.3-1.1-0.5-1.4-0.6c-0.3-0.1-0.6-0.1-0.8-0.1c-0.1,0-0.2,0-0.2,0s-0.2,0-0.2,0c-0.2,0-0.4,0-0.6-0.1c-0.2,0-0.5-0.1-0.8-0.2
		v-0.8c0.3-0.1,0.5-0.2,0.5-0.2c0,0-0.1,0-0.2-0.1s-0.2,0-0.2,0c0,0,0.1-0.1,0.4-0.2c0.1,0.2,0.1,0.3,0.1,0.3c0,0,0,0,0.1,0
		c0.1,0,0.1,0.1,0.3,0.2c0.1-0.2,0.1-0.3,0.1-0.4c0-0.1,0-0.1,0-0.2c0-0.1,0.1-0.3,0.2-0.4c-0.2,0-0.3,0-0.4,0s-0.1,0.1-0.1,0.1
		c0,0,0,0.1,0.1,0.1c0,0,0.1,0,0.1,0.1c0,0,0,0-0.1,0c0,0-0.1,0-0.1,0c-0.1,0.1-0.2,0.1-0.3,0.1c-0.1,0-0.2,0.1-0.2,0.1
		c0.1,0,0.1,0,0.2-0.1c0.2-0.1,0.3-0.2,0.3-0.3c0-0.1-0.1-0.1-0.2-0.2c0.1-0.1,0.2-0.2,0.2-0.3c0-0.1,0-0.2,0.1-0.3
		c-0.2,0.1-0.2,0.2-0.3,0.3c0,0,0,0.1-0.1,0.1c0,0-0.1,0-0.1-0.1c0,0-0.1,0-0.3,0c0-0.4,0.1-0.7,0.1-1c0-0.2,0.1-0.5,0.1-0.9
		c0-0.1-0.2-0.2-0.4-0.4c-0.1-0.1-0.1-0.1-0.1-0.2c0,0,0-0.1,0-0.3s0-0.4,0-0.5c0-0.3,0.1-0.5,0.4-0.6c0.3-0.1,0.8-0.2,1.8-0.2
		l-1.8-0.3V27c0.3-0.2,0.5-0.5,0.8-0.8c0.1,0.1,0.2,0.2,0.2,0.2c0,0,0.1,0,0.1,0c0.1,0,0.1,0,0.1,0c0-0.1,0-0.2,0-0.2
		c0-0.3,0.2-0.5,0.7-0.6c0.3-0.1,0.8-0.1,1.3-0.1c0.2,0.1,0.5,0.1,0.7,0.2c0.2,0.1,0.5,0.1,0.7,0.1c0,0.3-0.1,0.6-0.3,0.8
		c0.3,0,0.6,0.1,0.9,0.4c0.1,0.1,0.2,0.2,0.4,0.4c0,0.1,0,0.2-0.1,0.3c-0.1,0.1-0.1,0.3-0.1,0.3h1.8c0-0.1,0.1-0.2,0.3-0.4
		c0.1-0.2,0.2-0.3,0.2-0.5C28.1,26.7,27.7,26.2,27,25.4z M22.2,30c-0.1,0-0.2,0-0.3,0.1c-0.1,0.1-0.3,0.1-0.5,0.3
		c-0.1,0.1-0.2,0.1-0.2,0.2c0.2-0.1,0.5-0.1,0.7-0.2c0.2-0.1,0.4-0.2,0.6-0.2C22.4,30.1,22.3,30,22.2,30z M23.3,37.3
		c-0.2,0-0.3,0-0.4,0c-0.1,0-0.2,0-0.4,0c-0.1,0-0.2,0-0.4,0c0.2,0,0.3,0,0.5,0c0.3,0,0.6,0,1,0c0.1,0,0.2,0,0.3,0
		c-0.1,0-0.1,0-0.2,0C23.6,37.3,23.5,37.3,23.3,37.3z M27.4,28.7c-0.1,0-0.1,0.1-0.1,0.1C27.4,28.7,27.4,28.7,27.4,28.7
		c0.1,0,0.1-0.1,0.2-0.1C27.5,28.6,27.5,28.6,27.4,28.7z"/>
	<path class="st0" d="M41.6,27.5c-0.4,0.5-0.6,1-0.7,1.5c-0.1,0.6-0.2,1.4-0.2,2.6v1.5c0.1,0,0.1-0.1,0.2-0.4c0-0.2,0.1-0.4,0.1-0.4
		c0,0.1,0,0.2,0,0.3c0,0.3,0,0.6,0.1,1c0.1,0.4,0.2,0.8,0.4,1.4c-0.3-0.3-0.5-0.4-0.6-0.6c-0.4-0.4-0.6-0.6-0.7-0.6
		c-0.1,0-0.3,0.1-0.7,0.5c-0.4,0.4-0.8,0.8-0.9,1.3H35c-0.4,0-1-0.1-1.7-0.3C32.5,35.1,32,35,31.8,35c-0.3,0-0.5,0.1-0.6,0.2
		c-0.3-0.3-0.6-0.6-0.9-1c-0.5-0.6-0.7-1-0.7-1.3c0-0.2,0.2-0.7,0.5-1.4c0.4-0.8,0.5-1.3,0.5-1.5c0-0.1,0-0.2,0-0.3
		c0.5-0.2,1.3-0.3,2.4-0.5c1.1-0.1,2.6-0.2,4.3-0.2c0.2-0.1,0.3-0.2,0.6-0.3c0.2-0.1,0.6-0.3,1.1-0.5c-0.3-0.1-0.7-0.2-1.1-0.3
		c-0.4-0.1-0.7-0.1-1.1-0.1c-0.3,0-1.1,0.1-2.5,0.2c-0.8,0.1-1.4,0.1-1.9,0.1l0.4-1.6c-0.1,0.1-0.1,0.3-0.2,0.4
		c-0.1,0.3-0.5,0.5-1,0.5c0-0.1-0.1-0.6-0.3-1.3c-0.1-0.7-0.2-1.2-0.2-1.4c0-0.3,0.1-0.6,0.4-0.7c0.3-0.2,0.7-0.2,1.2-0.2
		c0.6,0,1.3,0,2.1,0.1c0.8,0,1.5,0,2,0c1,0,1.6,0,1.8-0.1c-0.1-0.3-0.1-0.5-0.1-0.5s-0.1-0.2-0.2-0.4c0.8,0.6,1.4,1.2,1.9,1.7
		c0.5,0.5,0.9,1,1.2,1.5L41.6,27.5z M30.7,28.2c0-0.1-0.2,0-0.4,0c-0.1,0-0.1,0-0.1,0c0,0,0.1,0,0.1,0c0.2-0.1,0.3-0.3,0.4-0.7
		L30.7,28.2z M38.7,27.4l-0.1-1.2l-0.7,0.3l0.2-0.8L35,26c-0.2,0.1-0.5,0.2-0.7,0.2c-0.2,0-0.4-0.1-0.6-0.2
		c-0.3-0.1-0.5-0.2-0.6-0.2c-0.2,0-0.4,0.1-0.5,0.2c-0.2,0.2-0.5,0.5-0.7,0.9L38.7,27.4z M38.3,31.6l-0.1-1.2l-5.1,0.4
		c-0.2,0.2-0.4,0.4-0.6,0.6c-0.1,0.3-0.2,0.6-0.3,0.9c0.1-0.1,0.2-0.2,0.3-0.2S32.8,32,33,32l0.1,0.7L32.3,33
		c0.4,0.3,0.7,0.4,0.9,0.5c0.2,0.1,0.4,0.1,0.6,0.1c0.1,0,0.2,0,0.3,0c0.1,0,0.3,0,0.4,0c0.6,0,1.3-0.2,1.9-0.5
		c0.6-0.3,1.1-0.6,1.3-0.7l-0.7,0c0.2-0.2,0.4-0.4,0.6-0.5C37.7,31.8,38,31.7,38.3,31.6z M36.4,32.7c0-0.2,0-0.3-0.1-0.4
		c0-0.1,0-0.2,0-0.3c0,0.1,0,0.2,0,0.3c0,0.1,0,0.2,0,0.3C36.4,32.6,36.4,32.7,36.4,32.7z"/>
	<path class="st0" d="M56.1,25.5c0,0.6-0.2,1.4-0.6,2.3c-0.4,0.9-0.6,1.5-0.6,1.7c0,0.2,0.1,0.4,0.2,0.5c0.1,0.1,0.3,0.3,0.6,0.4
		c-0.2,0.1-0.5,0.2-0.7,0.3c-0.3,0.2-0.6,0.3-0.8,0.4v1.2c0.3,0.1,0.6,0.2,0.9,0.2c0.2,0,0.5,0.1,0.8,0.1c-0.9,0-1.4,0.1-1.8,0.3
		c-0.3,0.2-0.4,0.4-0.4,0.8c0,0.1,0,0.3,0.1,0.5c0,0.2,0.1,0.4,0.1,0.5c0,0.2-0.1,0.4-0.2,0.5c-0.2,0.1-0.4,0.1-0.6,0.1
		c-0.1,0.2-0.3,0.3-0.4,0.5c-0.2,0.1-0.4,0.2-0.7,0.2c-0.6-0.1-1.3-0.1-2.1-0.2c-0.8,0-1.7-0.1-2.6-0.1c0-0.2,0.1-0.4,0.1-0.6
		c0-0.2,0.1-0.3,0.1-0.3c0-0.1,0-0.2-0.1-0.3c-0.1-0.1-0.3-0.2-0.5-0.3c0.1-0.1,0.1-0.2,0.2-0.3c0-0.1,0.1-0.3,0.1-0.5
		c0-0.4-0.1-0.7-0.4-0.8c-0.4-0.1-0.6-0.1-0.7-0.1c0.1,0,0.3-0.1,0.3-0.3c0.1-0.2,0.1-0.4,0.1-0.8c0-0.1-0.2-0.6-0.5-1.6
		c-0.3-1-0.6-2-1-3c-0.3-1-0.5-1.5-0.5-1.6c0.2-0.2,0.3-0.4,0.4-0.5c0.3-0.3,0.5-0.5,0.7-0.5c0.5,0,0.8,0.1,0.9,0.2
		c0.1,0.1,0.2,0.3,0.2,0.6c0,0.2,0,0.4,0,0.5c0,0.3,0.1,0.5,0.2,0.7c0.2,0.3,0.4,0.5,0.8,0.6l-0.5,0.7c0.2,0.2,0.4,0.3,0.5,0.3
		s0.3,0.1,0.5,0.2c-0.1,0-0.2,0-0.3,0c-0.1,0.1-0.2,0.1-0.4,0.2c0,0.1,0.1,0.1,0.1,0.2s0.3,0.1,0.6,0.1c0,0.1,0,0.1,0,0.2
		c0,0.1,0,0.2,0,0.3c0,0.3,0.1,0.7,0.2,1c0,0,0,0.1,0.1,0.2c0,0.2,0,0.4-0.1,0.4c0,0-0.1,0-0.1,0.1c0,0.3,0.2,0.8,0.7,1.3
		c0.5,0.5,1,0.9,1.5,1.2c-0.3,0-0.4,0.1-0.5,0.1c-0.3,0.1-0.5,0.1-0.7,0.2l0.5,0.7l2.4-0.3v-1.2c-0.2-0.1-0.4-0.1-0.6-0.2
		c-0.2,0-0.4-0.1-0.6-0.1h-0.3c1,0,1.5,0,1.6-0.1c-0.2-0.5,0.2-1.2,1.1-2.1c-0.1,0-0.2,0-0.3,0c-0.1,0-0.2,0-0.2,0
		c-0.3,0-0.5,0-0.5,0h0.5l0.5-0.7c-0.1-0.1-0.2-0.1-0.3-0.2c-0.1,0-0.2,0-0.4-0.1c0.2-0.1,0.4-0.1,0.6-0.1c0.2,0,0.4-0.1,0.4-0.3
		c0-0.2,0-0.4,0-0.7c0-0.3,0-0.5,0-0.8c0-0.3,0.4-0.7,1.2-1.2c-0.2-0.6-0.4-1.2-0.5-1.7c0.2,0,0.3,0,0.5-0.1
		c0.2-0.1,0.3-0.1,0.5-0.2c0.3,0,0.6,0.1,0.8,0.3S56.1,25.2,56.1,25.5z M53,28.2C53,28.2,53,28.3,53,28.2c0,0.1-0.2,0.1-0.4,0.1
		c-0.3,0-0.4,0-0.4-0.1c0,0,0,0,0.1-0.1s0.2-0.1,0.3-0.1c0.1,0,0.1,0,0.1,0C52.7,28.1,52.8,28.1,53,28.2z"/>
	<path class="st0" d="M71.2,35.5c-0.4,0.1-1.1,0.2-2.2,0.3s-2.2,0.2-3.2,0.4c-1,0.1-1.8,0.3-2.2,0.5c0.1,0,0.2-0.1,0.3-0.1
		c0.1,0,0.2-0.1,0.2-0.1c-1-0.3-2-0.5-3-0.7s-1.9-0.3-2.7-0.3h1.4c0.1-0.1,0.1-0.2,0.2-0.3c0.1-0.1,0.2-0.2,0.2-0.2
		c-0.3-0.4-0.6-0.7-0.8-1.1c-0.2-0.4-0.4-0.7-0.6-1.1c-0.1,0.2-0.2,0.3-0.2,0.3c0,0.1,0,0.2-0.1,0.4v-6l0.5,0.5
		c0.1-0.2,0.2-0.3,0.2-0.4c0.1-0.1,0.2-0.2,0.2-0.3c0-0.1-0.1-0.4-0.2-0.8c0.7-0.3,1.2-0.6,1.7-0.9c0.3-0.2,0.6-0.5,0.9-0.7
		c0.5,0.1,0.9,0.2,1.2,0.2c0.3,0,0.5,0,0.6-0.1c0.1-0.1,0.2-0.2,0.2-0.3c0.8,0,1.3,0,1.6,0.1c0.1,0,0.2,0.1,0.2,0.1
		c0,0.2,0.1,0.3,0.4,0.3c0.2,0,0.5,0,0.8-0.1c0.2,0,0.3-0.1,0.5-0.1c0.7,0.2,1.3,0.9,1.9,2s1.2,1.8,1.9,2.1
		c-0.4,0.3-0.7,0.4-0.8,0.5c-0.2,0.1-0.2,0.4-0.2,0.8v0.4c0,0.2,0,0.3,0,0.3c0.2,0,0.5,0,0.9,0.1c-0.4,0.1-1,0.2-1.7,0.2
		s-1.6,0.1-2.6,0.1c-1.4,0-2.8,0-4.1-0.1c-1.3-0.1-2-0.1-2.1-0.2v2.1l10.5,0c-0.1,0.1-0.2,0.1-0.4,0.3c-0.1,0-0.1,0.1-0.1,0.1
		c0,0,0,0-0.1-0.1c-0.1-0.1-0.2-0.2-0.4-0.2c-0.1,0.5-0.2,0.9-0.3,1.1c-0.1,0.4-0.2,0.6-0.2,0.8c0.3,0.1,0.5,0.1,0.7,0.2
		C70.7,35.5,70.9,35.5,71.2,35.5z M68.6,29.7l-7.2,0c-0.1,0-0.1-0.2-0.2-0.4c-0.1-0.6-0.2-0.9-0.3-1c0.1,0.1,0.3,0.2,0.5,0.2
		c0-0.2,0-0.3,0-0.3c0,0,0-0.1,0-0.1c0,0,0-0.1,0.1-0.1c0-0.1,0.1-0.2,0.3-0.4c-0.1,0.1-0.2,0.3-0.3,0.5c0.4-0.4,0.8-0.8,1.1-1.1
		c0.1-0.1,0.5-0.1,1.1-0.1h1.1c0.3,0,0.7,0.1,1.1,0.2c0.4,0.1,0.7,0.2,1.1,0.3c-0.1-0.2-0.3-0.4-0.5-0.5c0.4,0.3,0.9,0.9,1.4,1.7
		C68.1,29,68.3,29.4,68.6,29.7z M62.3,29.7c0.2,0.1,0.3,0.2,0.3,0.2c0,0,0,0.1-0.1,0.1c-0.3,0-0.6-0.1-1-0.2c0,0,0-0.1-0.1-0.1
		c0.2,0,0.2-0.1,0.2-0.2c0-0.1,0-0.1,0-0.1c0.1,0,0.2,0,0.3,0.1C62,29.5,62.1,29.6,62.3,29.7z M68.1,34.1c-0.1-0.1-0.2-0.2-0.3-0.2
		s-0.1-0.1-0.3-0.3h-6c0.2,0.5,0.6,0.8,1.1,1c0.4,0.1,1,0.2,1.7,0.2c0.2,0,0.4,0,0.7-0.1c0.3-0.1,0.5-0.1,0.8-0.1
		c-0.1-0.1-0.2-0.3-0.3-0.5c0.3,0.1,0.5,0.2,0.6,0.2c0.2,0.1,0.4,0.1,0.4,0.1c0,0,0.2,0,0.4-0.1C67.4,34.2,67.7,34.1,68.1,34.1z"/>
	<path class="st0" d="M80.6,34.7c-0.4,0.3-0.7,0.6-1,0.9c-0.1,0.1-0.2,0.2-0.3,0.3c-1.3-0.1-2.2-0.2-2.9-0.2c-1.9-0.2-3-0.3-3.3-0.4
		c0,0,0-0.1,0-0.1C73,35.1,73,35,73,34.9c0-0.3,0.1-0.4,0.3-0.5c0.2-0.1,0.5-0.1,1-0.1c0.1,0,0.3,0,0.6,0c0.3,0,0.5,0,0.6,0
		c0-0.1,0-0.2,0.1-0.3c0,0-0.1-0.1-0.3-0.3c0.2,0,0.4-0.1,0.7-0.2c-0.2-0.1-0.3-0.3-0.3-0.4L75,32.8h-1.6h2.3c0-0.3,0-0.6,0.1-1
		c0.1-0.3,0.1-0.6,0.1-0.8l-0.7,0.1c0.4-0.6,0.7-1.1,0.7-1.5c0-0.3-0.2-0.5-0.5-0.5c-0.4-0.1-1-0.1-2-0.1c0.9,0,1.4,0,1.5,0
		c0.7-0.1,1-0.3,1-0.7c0-0.3-0.2-0.7-0.5-1.3c0,0.1,0.1,0.1,0.1,0.2s0.1,0.1,0.1,0.2c0-0.1,0.1-0.1,0.1-0.2c0.1-0.3,0.2-0.6,0.2-0.9
		c0-0.3,0-0.6,0-0.8c0-0.3,0-0.5,0-0.7c0-0.5-0.1-0.8-0.4-0.9c-0.6-0.2-1.3-0.5-2-0.8c0.2-0.3,0.4-0.5,0.6-0.8
		c0.2-0.2,0.7-0.2,1.5-0.2h0.7c0.4,0,0.6,0.1,0.8,0.2c0.2,0.1,0.3,0.3,0.3,0.7c0.1,0.8,0.2,1.5,0.2,2.2c0,0.4,0,0.9-0.1,1.4
		c-0.1,1.3-0.1,2.1-0.1,2.6c0.3,0,0.9,0,1.6,0c0.8,0,1.2,0,1.5,0c-1,0-1.8,0.1-2.3,0.2c-0.5,0.1-0.8,0.3-0.8,0.6
		c0,0.4,0.1,0.6,0.4,0.8c0.1,0.1,0.4,0.2,0.9,0.4c-0.5,0.1-0.9,0.1-1.3,0.2v2.7c0.4,0.1,0.9,0.2,1.5,0.3S80.1,34.5,80.6,34.7z"/>
	<path class="st0" d="M90.3,29.5c0.3,0,0.6,0,0.8,0.1c0.5,0.1,0.8,0.2,0.9,0.4c0,0.1,0,0.1-0.1,0.1c-0.2,0-0.6-0.1-1.2-0.4
		C90.6,29.7,90.4,29.6,90.3,29.5z M94.4,35.9h3h-3.5c-0.1,0-0.3,0-0.6,0c-0.3,0-0.7,0-1,0c-0.4,0-0.7,0-0.8,0c-0.1,0-0.3,0-0.4,0
		L94.4,35.9z M103.8,35.1c-1.3,0-2.1,0-2.4,0.1c-0.4,0.1-0.8,0.3-1.2,0.7h-5.7c-0.7-0.5-1.1-0.9-1.3-1c-0.3-0.2-0.5-0.3-0.8-0.3
		c0-0.1,0-0.3,0-0.4c0-0.1,0-0.2,0-0.3c0-0.4-0.1-0.6-0.3-0.7c-0.3-0.1-0.5-0.1-0.7-0.2v-3.6c0.4-0.8,0.7-1.3,0.8-1.5
		c0.2-0.3,0.2-0.6,0.2-0.8c0-0.2,0-0.4-0.1-0.7c0.9-0.3,2.1-0.8,3.8-1.3c0.3-0.1,0.5-0.3,0.5-0.5c0.3,0.2,0.5,0.4,0.6,0.5
		s0.3,0.1,0.5,0.1c0.1,0,0.2,0,0.4-0.1c0.2-0.1,0.4-0.1,0.5-0.1c0.2,0,0.4,0,0.7,0.1s0.5,0.2,0.9,0.4c0.3-0.4,0.5-0.6,0.6-0.8
		c0.1-0.2,0.1-0.3,0.1-0.5c0-0.1,0-0.1,0-0.2c0-0.1,0-0.2,0-0.3c0.1-0.1,0.1-0.4,0.2-0.8c0-0.4,0.1-0.9,0.1-1.5h1.6
		c0.1,0.9,0.2,1.7,0.2,2.5c0,0.6,0,1.2-0.1,2c-0.1,0.8-0.1,1.2-0.1,1.4c0,0.4,0.1,0.8,0.2,1.1c0.1,0.3,0.4,0.6,0.8,0.8
		c-0.4,0.2-0.6,0.3-0.7,0.3c-0.1,0.1-0.2,0.3-0.2,0.6c0,0.4,0.1,0.7,0.4,0.8s0.4,0.3,0.5,0.3c-0.3,0.2-0.5,0.3-0.8,0.4
		c-0.1,0.1-0.2,0.2-0.2,0.3v0.3c0,0.4,0.1,0.6,0.2,0.7c0.3,0.1,0.5,0.2,0.7,0.3c-0.2,0-0.4,0-0.6,0c-0.2,0-0.4,0-0.4,0
		c-0.2,0-0.4,0.1-0.5,0.3c-0.2,0.5-0.4,0.9-0.5,1.4c0.1,0.1,0.2,0.1,0.3,0.2c0,0,0.1,0.1,0.2,0.2c0.2-0.1,0.5-0.3,0.7-0.5
		c0.2,0.1,0.3,0.2,0.5,0.2C103.4,35,103.6,35,103.8,35.1z M91.4,32.1c0,0.2,0,0.4,0.1,0.4c0.1,0,0.2-0.1,0.2-0.3
		c0-0.1,0-0.1-0.1-0.1c0,0-0.1,0-0.2,0.1v-1.1c0.2,0.1,0.3,0.2,0.4,0.3c0,0,0.1,0,0.1,0c-0.1,0-0.1,0-0.2,0c-0.1,0-0.2,0.1-0.3,0.2
		C91.5,31.6,91.4,31.8,91.4,32.1z M100.8,28.6v-0.9c-0.1,0-0.2-0.1-0.2-0.1c-0.1,0-0.1,0-0.1,0c0,0-0.1-0.1-0.3-0.4
		c0,0-0.1,0.1-0.2,0.1c-0.1,0-0.2,0.1-0.3,0.1c0.1-0.3,0.1-0.5,0.2-0.7h-4.8c-0.1,0.4-0.3,0.8-0.6,1.2c-0.2,0.2-0.3,0.4-0.5,0.6
		H100.8z M100.8,30.6c0-0.2,0-0.3,0-0.3c0,0,0-0.2,0-0.4v-0.7h-6.6c0,0.3-0.1,0.5-0.1,0.8c0,0.2,0,0.4,0.1,0.6c0.9,0,1.8,0,2.6,0
		s1.7,0,2.5,0C100.3,30.6,100.8,30.6,100.8,30.6z M100.8,32.2h-1.1l0.5-0.7c-0.5-0.1-1.6-0.1-3.1-0.2c-1.6,0-2.5-0.1-2.8-0.1
		c0,0.2,0,0.4,0,0.8c0,0.1,0,0.2,0,0.3c0,0.1,0,0.2,0,0.3h6.4C100.7,32.4,100.7,32.3,100.8,32.2c0-0.2,0-0.5,0-0.9
		c-0.1,0.2-0.1,0.3-0.1,0.4C100.8,31.9,100.8,32.1,100.8,32.2z M98.3,33.4c-0.4,0-0.8,0-1.2,0.1s-0.7,0-0.9,0c-0.2,0-0.6,0-1.1-0.1
		c0.1,0.1,0.1,0.2,0.2,0.2c0,0,0.1,0.1,0.1,0.3l-0.7-0.2c0.4,0.2,0.8,0.4,1,0.4c0.2,0.1,0.4,0.1,0.5,0.1c0.1,0,0.4,0,0.8-0.1
		c0.4-0.1,0.7-0.1,0.9-0.2c-0.1-0.1-0.2-0.3-0.2-0.5c0.2,0,0.4,0.1,0.4,0.1C98.1,33.4,98.2,33.4,98.3,33.4z M100.1,33.4H99
		c0.1,0,0.2,0,0.3,0c0.1,0,0.3,0,0.3,0c0,0.1-0.1,0.3-0.1,0.4c0,0.1-0.1,0.2-0.1,0.3c-0.1,0-0.3-0.1-0.5-0.2
		c-0.1-0.1-0.2-0.1-0.4-0.2c0,0,0,0,0,0.1c0,0-0.1,0.2-0.2,0.4c0.1,0,0.4,0,0.8,0.1c0.1,0,0.2,0,0.3,0.1c0.2,0,0.4-0.1,0.5-0.3
		C99.9,33.8,100,33.6,100.1,33.4z"/>
	<path class="st0" d="M105.7,33.8c-0.1,0.1-0.1,0.2-0.2,0.4c-0.1,0.1-0.2,0.2-0.3,0.4C105.4,34.3,105.5,34,105.7,33.8z M117.3,27.9
		c-0.1,0-0.2,0-0.5,0c-0.2,0-0.4,0-0.7,0c-0.4,0-0.8,0-1.1,0.1c-0.8,0.1-1.2,0.2-1.3,0.2c0,0.2-0.1,0.4-0.2,0.6
		c-0.1,0.3-0.4,0.5-0.8,0.8c0.2,0.1,0.4,0.2,0.6,0.2s0.3,0.1,0.4,0.1c-0.9,0.2-1.5,0.5-1.7,0.8c-0.2,0.4-0.6,0.7-1,0.9
		c0.2,0.2,0.4,0.3,0.6,0.5c0.1,0,0.5,0,1.1,0c-0.4,0.1-0.8,0.1-1.3,0.2c-0.5,0-1,0.1-1.6,0.1c0,0.3,0,0.5-0.1,0.5
		c0,0.1-0.1,0.2-0.2,0.5c0.3,0.2,1.1,0.4,2.3,0.5c1.2,0.1,2.7,0.2,4.5,0.2c0,0.1,0,0.2,0.1,0.3c0,0,0.1,0.1,0.1,0.2
		c0,0.8-2,1.2-6.1,1.2c-1.5,0-2.5-0.1-3.3-0.2c-0.7-0.1-1.3-0.4-1.7-0.8c0.3-0.4,0.5-0.7,0.6-0.8c0.2-0.3,0.6-0.7,1.1-1.1
		c-0.1-0.1-0.1-0.2-0.1-0.3c0-0.1,0-0.1,0-0.1c0,0,0-0.1-0.1-0.1c-0.1-0.1-0.3-0.1-0.5-0.2c0.6,0,0.9,0,1,0c0.1,0,0.2,0,0.3-0.1
		c0.4-0.4,0.8-0.8,1.2-1.1v-1h-1.9h0.5c0.5,0,0.8,0,0.9-0.1s0.5-0.2,1-0.4c-0.1,0-0.2,0.1-0.3,0.1c-0.1,0-0.1,0.1-0.2,0.1
		c0.7,0,1.2-0.1,1.3-0.3c0.1-0.1,0.2-0.2,0.4-0.2c0.2,0,0.3,0,0.4-0.1c0.1-0.1,0.1-0.2,0.1-0.4c0-0.1,0-0.3-0.1-0.4
		c0-0.1-0.1-0.3-0.2-0.5c0.7-0.2,1.2-0.5,1.5-0.9c0.1-0.1,0.2-0.4,0.5-1c-1.1,0-2,0-2.7,0c-0.7,0-1.4,0-1.9-0.1c-0.2,0-0.5,0-0.7,0
		c-0.2,0-0.5,0-0.8,0.1v-1.5c0.2-0.1,0.9-0.1,2.1-0.3c1.6-0.2,2.9-0.2,4.1-0.2c1.2,0,2,0.2,2.6,0.5c0.5,0.3,0.7,0.7,0.7,1.2l-1.7,2
		c0.1,0,0.3,0.1,0.5,0.2s0.4,0.1,0.6,0.1c0.2,0,0.4,0,0.5-0.1c0,0,0.1-0.1,0.1-0.1c0,0,0,0.1,0,0.1
		C116.7,27.6,116.9,27.8,117.3,27.9z"/>
</g>
</svg>
