<svg version="1.1" id="Calque_1" xmlns="http://www.w3.org/2000/svg" xmlns:xlink="http://www.w3.org/1999/xlink" x="0px" y="0px"
	 viewBox="0 0 300 100" style="enable-background:new 0 0 300 100;" xml:space="preserve">
<style type="text/css">
	.st0{fill:#FFFFFF;}
</style>
<g>
	<path class="st0" d="M30,63.8c-3.3,0-5.1,0.4-5.5,1.1c-0.4,0.7-2,1.1-5,1.1c-2,0-3.4-0.2-4.4-0.7c-1.6-0.8-2.8-1.2-3.4-1.4
		C9.5,63.5,6,63.3,1.2,63.3C1.8,63,2.4,62.9,3,62.8c0.6-0.1,1.2-0.1,1.8-0.1c0.8,0,1.6,0.1,2.5,0.2c0.8,0.2,1.7,0.3,2.7,0.5
		c0.5,0,0.7-0.2,0.7-0.7c0-1.1-0.3-2.2-0.8-3c-0.2-0.3-0.4-0.6-0.8-1c0-0.3-0.1-0.5-0.4-0.5c-0.2,0-0.6,0.1-1,0.3
		c-0.1,0-0.1,0.1-0.3,0.2c0.5-0.8,0.8-1.5,0.9-2.1c0.2-0.6,0.3-1.2,0.3-1.7c0-0.3,0-0.5,0-0.8c0-0.3,0-0.4,0-0.5v-5.1
		c-0.7-0.2-1.2-0.4-1.4-0.5C7,48,6.9,47.9,6.7,47.9c-0.1,0-0.2,0.1-0.4,0.1c-0.2,0-0.4,0-0.7,0h2.9v-4.5c-0.8,0-1.4,0-1.8,0
		c-0.4,0-0.9,0.1-1.2,0.1c-0.4,0-0.9-0.1-1.3-0.3c-0.4-0.2-1.3-0.7-2.5-1.5V40c1.1-0.4,2.2-0.7,3.3-0.8s2.1-0.2,2.9-0.3
		c0.2-1.7,0.5-3.7,0.8-6c0.2-1.6,0.3-2.6,0.4-3c0.8,0,1.4-0.1,1.7-0.3c0.1-0.1,0.2-0.2,0.3-0.3c1.1,0,1.9,1.1,2.2,3.3
		c0.2,1.3,0.3,3.2,0.3,5.7l1.2,1.2c0.3-0.2,0.6-0.4,0.8-0.6c0.4-0.3,1.1-0.7,2-1.2c-0.2,0.1-0.4,0.2-0.6,0.3
		c-0.1,0.1-0.3,0.4-0.6,0.9c1,0.2,1.9,0.4,2.7,0.5c0.8,0.1,1.6,0.2,2.3,0.2c0.5,0,1,0,1.4,0c0.4,0,0.8-0.1,1.2-0.1
		c0.5,0,0.9,0.1,1.2,0.2c0.3,0.2,0.6,0.5,0.9,1c0,0.7,0,1.1,0,1.3c0,0.5,0.2,1,0.6,1.6c-1.2-0.2-3-0.4-5.5-0.5
		c-2.5-0.1-5-0.1-7.6-0.1c0,0.5-0.1,2-0.4,4.6c-0.2,1.4-0.2,2.7-0.2,3.9c0,0.4,0,0.8,0,1.1s0,0.8,0,1.2c0,2,0.1,3.4,0.4,4.3
		c0.4,1.3,1.3,1.9,2.5,1.9c0,0.4,0.1,0.7,0.2,0.9c0.5,1.3,1.8,2,3.8,2c1.5,0,2.6-0.3,3.2-0.9c0.5-0.5,0.8-1.1,0.8-2l0.6-1.7
		c1,0.2,1.9,0.4,2.7,0.5c0.4,0,0.8,0,1.2,0l-0.5,4.6c0.3,0.1,0.5,0.1,0.8,0.1c0.1,0,0.2-0.1,0.4-0.2c0.3-0.3,0.5-0.5,0.5-0.5
		C29.6,63.2,29.8,63.5,30,63.8z M10.2,28.1C10.2,28.1,10.3,28.1,10.2,28.1C10.1,28,9.7,28,9.1,28c-0.7,0-1.1,0-1.2,0
		c0,0.1,0.1,0.1,0.1,0.1c0.5,0.1,0.9,0.2,1.2,0.2C9.4,28.3,9.8,28.2,10.2,28.1z M27.8,68.9h-4h3.4c0-0.5,0-0.8,0.1-0.9
		s0.2-0.4,0.5-0.8V68.9z"/>
	<path class="st0" d="M33.1,51.5c-0.4,0.1-0.8,0.1-1.2,0.2c0.5-0.1,1.1-0.3,1.6-0.4c0.5-0.1,1.2-0.3,2.2-0.5h0
		c-0.1,0-0.2,0.1-0.3,0.1C34.3,51.2,33.5,51.4,33.1,51.5z M32,69.7h13.9c0,0-0.1,0-0.1,0c0,0-0.2,0-0.4,0H32z M64.5,39
		c-1.6-1.5-3.3-2.8-5.1-4L48,36l-10-2.4c-0.1,0.1-0.6,0.4-1.7,1c-0.7,0.4-1.1,1.2-1.1,2.3c0,1.5,1,2.3,3,2.4c2,0.1,3,1.3,3,3.6
		c0,0.3-0.1,0.7-0.3,1.2c-0.2,0.5-0.3,0.8-0.3,0.8c-1.7,0-2.6,0.1-2.7,0.2c0,0,0,0.1,0,0.1c-0.1-0.1-0.3-0.1-0.5-0.2
		c-0.2,0-0.5-0.1-0.8-0.2c0.6,0.3,1.1,0.5,1.4,0.5c0.4,0.1,0.8,0.1,1.3,0.1h0.7c0.7,0,1.2,0.2,1.4,0.6c0.2,0.4,0.4,1.3,0.4,2.8
		c0,0.5-0.2,0.9-0.6,1.3c-0.7,0.5-1.4,0.9-2,1.3h2l-0.6,4.7c-0.9-0.3-1.6-0.4-1.9-0.4c-0.4,0-1.8,0.6-4.1,1.7c0.6,0,1.2,0,1.6,0
		s0.8,0,1,0c0.5,0,1,0.1,1.5,0.3c0.3,0.1,1.1,0.5,2.6,1.1c-0.2,0.7-0.4,1.2-0.4,1.4c0,0.2-0.1,0.7-0.2,1.3h-5.4
		c-0.1,0.5-0.2,1.1-0.3,1.7c-0.1,0.6-0.2,1.4-0.3,2.2c0.7,0.1,1.6,0.2,2.7,0.3c0.9,0.1,1.7,0.5,2.6,1c0.1,0.2,0.3,0.4,0.5,0.5
		c0.3,0.1,0.5,0.1,0.8,0.2c-0.4-0.1-0.6-0.2-0.8-0.3c-0.2-0.1-0.3-0.2-0.5-0.3c1.2-0.3,2.4-0.6,3.4-0.7c1.1-0.2,2.5-0.3,4.2-0.3
		c1.7,0,3.3,0.1,4.9,0.4c1,0.2,1.7,0.4,2.2,0.6c0.3-0.7,0.8-1.3,1.3-1.8c0.2-0.2,0.9-0.7,2.1-1.5c-1.6-0.8-2.8-1.4-3.6-1.6
		c-0.8-0.2-1.5-0.4-2.2-0.4c-0.2,0-0.4,0-0.6,0c-0.2,0-0.4,0-0.6,0c-0.5,0-1,0-1.6-0.2c-0.6-0.1-1.3-0.3-2.1-0.6v-2
		c0.9-0.3,1.3-0.5,1.3-0.6c0-0.1-0.2-0.1-0.6-0.1c-0.4,0-0.6-0.1-0.6-0.1c0-0.1,0.4-0.3,1.2-0.5c0.2,0.4,0.3,0.7,0.4,0.8
		c0.1,0,0.1,0,0.2,0c0.1,0,0.4,0.2,0.7,0.6c0.2-0.4,0.3-0.7,0.3-0.9c0-0.2,0-0.4-0.1-0.6c0-0.3,0.2-0.6,0.5-1.2
		c-0.5,0-0.9,0-1.1,0.1c-0.2,0-0.3,0.2-0.3,0.3c0,0.1,0.1,0.2,0.3,0.4c0.1,0,0.2,0.1,0.3,0.2c0-0.1-0.1-0.1-0.2-0.1
		c-0.1,0-0.2-0.1-0.3-0.1c-0.3,0.1-0.6,0.3-0.8,0.3s-0.4,0.2-0.6,0.3c0.2-0.1,0.3-0.1,0.4-0.1c0.5-0.3,0.7-0.5,0.7-0.8
		c0-0.2-0.1-0.3-0.4-0.4c0.3-0.4,0.5-0.6,0.5-0.6c0.1-0.2,0.1-0.5,0.2-0.7c-0.4,0.3-0.6,0.5-0.7,0.6c-0.1,0.1-0.1,0.2-0.2,0.3
		c-0.1-0.1-0.2-0.1-0.4-0.1c-0.1,0-0.4-0.1-0.8-0.1c0.1-1,0.2-1.9,0.3-2.5c0.1-0.6,0.2-1.4,0.4-2.2c-0.1-0.2-0.4-0.5-1.1-0.9
		c-0.2-0.1-0.3-0.3-0.3-0.4c0-0.1,0-0.4-0.1-0.9c0-0.5-0.1-0.9-0.1-1.2c0-0.7,0.3-1.3,1-1.5c0.7-0.3,2.2-0.4,4.5-0.4l-4.7-0.7v-2
		c0.7-0.5,1.3-1.2,2-2c0.4,0.3,0.6,0.5,0.6,0.5c0.1,0,0.2,0.1,0.3,0.1c0.1,0,0.3,0.1,0.4,0.1c-0.1-0.2-0.1-0.4-0.1-0.6
		c0-0.7,0.6-1.3,1.9-1.7c0.9-0.3,2-0.4,3.3-0.4c0.6,0.2,1.2,0.3,1.8,0.5c0.6,0.1,1.2,0.2,1.9,0.2c-0.1,0.8-0.3,1.4-0.6,2
		c0.7,0,1.5,0.4,2.3,1.2c0.3,0.2,0.6,0.6,0.9,1.1c0,0.2-0.1,0.5-0.3,0.8c-0.2,0.3-0.3,0.6-0.3,0.9H66c0.1-0.2,0.4-0.6,0.9-1.2
		c0.3-0.4,0.5-0.8,0.5-1.2C67.4,42.3,66.4,40.8,64.5,39z M52.1,50.8c-0.2,0-0.4,0.1-0.8,0.2c-0.4,0.1-0.8,0.3-1.3,0.6
		c-0.4,0.2-0.6,0.4-0.6,0.4c0.6-0.1,1.2-0.3,1.8-0.5c0.5-0.2,1-0.4,1.5-0.6C52.6,50.9,52.4,50.9,52.1,50.8z M55.1,69.5
		c-0.4,0-0.8,0-1.2,0c-0.3,0-0.6,0-0.9,0c-0.3,0-0.6,0.1-0.9,0.1c0.4,0,0.8,0.1,1.2,0.1c0.8,0,1.6,0,2.5,0c0.2,0,0.5,0,0.8,0
		c-0.2-0.1-0.3-0.1-0.5-0.1C55.8,69.7,55.5,69.6,55.1,69.5z M65.6,47.3c-0.1,0.1-0.2,0.2-0.3,0.3c0.1-0.1,0.3-0.2,0.4-0.3
		c0.1-0.1,0.2-0.2,0.3-0.3C65.9,47.1,65.7,47.2,65.6,47.3z"/>
	<path class="st0" d="M102.4,44.2c-1,1.2-1.6,2.5-1.9,4c-0.3,1.5-0.4,3.7-0.4,6.8v3.8c0.2,0,0.4-0.3,0.5-0.9s0.2-0.9,0.2-1
		c0,0.3,0,0.5,0,0.7c0,0.8,0.1,1.6,0.3,2.6c0.2,0.9,0.6,2.1,1.1,3.6c-0.7-0.7-1.2-1.1-1.6-1.5c-1.1-1-1.7-1.5-1.8-1.5
		c-0.3,0-0.8,0.4-1.7,1.2c-1.1,1-2,2.1-2.5,3.4h-9.5c-1,0-2.5-0.3-4.4-0.8c-1.9-0.5-3.2-0.8-3.8-0.8c-0.7,0-1.2,0.2-1.5,0.6
		c-0.7-0.7-1.5-1.6-2.3-2.7c-1.3-1.6-1.9-2.7-1.9-3.3c0-0.5,0.5-1.7,1.4-3.7s1.4-3.3,1.4-4c0-0.3,0-0.5-0.1-0.6
		c1.3-0.5,3.4-0.9,6.3-1.3c2.9-0.4,6.7-0.6,11.2-0.6c0.4-0.3,0.9-0.6,1.5-0.9c0.6-0.3,1.5-0.7,2.8-1.3c-0.9-0.3-1.8-0.6-2.8-0.7
		c-1-0.1-1.9-0.2-2.7-0.2c-0.7,0-2.9,0.2-6.6,0.6c-2,0.2-3.6,0.3-4.9,0.3l1.2-4.1c-0.1,0.3-0.3,0.7-0.5,1.1
		c-0.4,0.8-1.3,1.3-2.6,1.3c-0.1-0.3-0.3-1.4-0.7-3.3c-0.3-1.8-0.5-3-0.5-3.6c-0.1-0.9,0.3-1.5,1.1-1.9c0.8-0.4,1.9-0.6,3.1-0.6
		c1.5,0.1,3.3,0.1,5.4,0.2c2.1,0.1,3.8,0.1,5.1,0.1c2.7,0,4.2-0.1,4.6-0.3c-0.2-0.7-0.3-1.2-0.4-1.3c0-0.2-0.2-0.5-0.4-1.1
		c2,1.6,3.7,3.1,5,4.4c1.3,1.3,2.3,2.6,3.1,3.8L102.4,44.2z M74.2,46.2c-0.1-0.1-0.4-0.1-0.9,0.1c-0.2,0.1-0.4,0.1-0.4,0
		c0.1,0,0.2,0,0.3,0c0.4-0.2,0.7-0.9,0.9-1.9L74.2,46.2z M94.9,44.1l-0.3-3.2l-1.8,0.8l0.5-1.9l-8.1,0.6c-0.6,0.4-1.2,0.6-1.9,0.6
		c-0.4,0-1-0.1-1.7-0.4c-0.7-0.3-1.2-0.4-1.5-0.4c-0.5,0-0.9,0.2-1.4,0.6c-0.6,0.5-1.2,1.3-1.8,2.4L94.9,44.1z M93.8,54.9l-0.2-3.1
		l-13.1,0.9c-0.5,0.5-1,1-1.5,1.6c-0.3,0.8-0.5,1.6-0.8,2.4c0.3-0.3,0.6-0.4,0.8-0.5s0.6-0.2,1.1-0.3l0.1,1.9l-1.9,0.8
		c0.9,0.7,1.7,1.1,2.2,1.3c0.5,0.2,1,0.3,1.5,0.3c0.2,0,0.4,0,0.8-0.1c0.3-0.1,0.6-0.1,0.9-0.1c1.7,0,3.3-0.4,4.9-1.3
		c1.6-0.9,2.7-1.5,3.4-1.7L90.1,57c0.5-0.5,1.1-0.9,1.6-1.2C92.3,55.5,93,55.2,93.8,54.9z M89,57.7c-0.1-0.4-0.1-0.8-0.1-1.1
		c0-0.3,0-0.6,0-0.8c0,0.2,0.1,0.4,0.1,0.6c0,0.2,0.1,0.4,0.1,0.7C89,57.5,89,57.6,89,57.7z"/>
	<path class="st0" d="M139.9,39.2c0,1.6-0.5,3.5-1.6,5.9c-1,2.3-1.6,3.8-1.6,4.4c0,0.5,0.1,1,0.4,1.4c0.3,0.4,0.8,0.7,1.5,1
		c-0.6,0.2-1.2,0.4-1.8,0.7c-0.9,0.4-1.5,0.8-2,1.2v3.1c0.9,0.2,1.6,0.4,2.3,0.5c0.6,0.1,1.3,0.2,2.1,0.2c-2.2,0-3.7,0.3-4.6,0.9
		c-0.7,0.4-1,1.1-1,2c0,0.3,0.1,0.8,0.2,1.3c0.1,0.6,0.2,1,0.2,1.3c0,0.6-0.2,1-0.6,1.2c-0.4,0.2-1,0.3-1.7,0.3
		c-0.3,0.5-0.7,0.9-1,1.3c-0.5,0.3-1.1,0.5-1.9,0.5c-1.5-0.1-3.3-0.3-5.5-0.4c-2.1-0.1-4.4-0.2-6.8-0.2c0.1-0.5,0.2-1,0.3-1.4
		c0.1-0.4,0.2-0.7,0.2-0.8c0-0.3-0.1-0.5-0.3-0.7c-0.2-0.2-0.7-0.5-1.4-0.8c0.2-0.2,0.4-0.4,0.5-0.7c0.1-0.3,0.2-0.7,0.2-1.2
		c0-1.1-0.4-1.8-1.2-2.2c-1-0.1-1.6-0.3-1.9-0.3c0.4-0.1,0.7-0.4,0.9-0.8c0.2-0.4,0.3-1.1,0.3-2c0-0.2-0.4-1.6-1.3-4.2
		c-0.8-2.6-1.7-5.2-2.5-7.8c-0.8-2.6-1.3-3.9-1.3-4.1c0.4-0.6,0.8-1,1-1.3c0.7-0.8,1.4-1.3,1.9-1.3c1.2,0,2,0.2,2.4,0.6
		c0.3,0.3,0.4,0.8,0.4,1.6c0,0.5,0,0.9,0,1.2c0,0.7,0.1,1.4,0.4,1.9c0.4,0.7,1.1,1.2,2.1,1.6l-1.3,1.9c0.6,0.4,1,0.7,1.3,0.8
		c0.3,0.1,0.7,0.3,1.2,0.4c-0.3,0.1-0.6,0.1-0.9,0.1c-0.3,0.1-0.6,0.3-1,0.5c0.1,0.2,0.2,0.4,0.4,0.5c0.1,0.1,0.6,0.2,1.5,0.2
		c0,0.1,0,0.4,0,0.6c0,0.3,0,0.5,0,0.8c0,0.9,0.2,1.7,0.5,2.5c0.1,0.1,0.1,0.3,0.2,0.5c0,0.5-0.1,0.9-0.3,1.1
		c-0.1,0.1-0.2,0.1-0.3,0.1c0,0.9,0.6,2,1.8,3.3c1.2,1.3,2.5,2.3,3.9,3c-0.7,0.1-1.2,0.2-1.3,0.2c-0.7,0.1-1.3,0.3-1.8,0.4l1.3,1.9
		l6.3-0.6v-3.1c-0.6-0.1-1.1-0.3-1.6-0.4c-0.5-0.1-1-0.2-1.5-0.2h-0.7c2.6,0,4-0.1,4.2-0.3c-0.5-1.3,0.5-3.1,2.8-5.4
		c-0.2,0-0.4,0-0.7,0c-0.3,0-0.4,0-0.6,0c-0.8,0-1.2,0-1.3,0h1.3l1.3-1.9c-0.3-0.1-0.6-0.3-0.9-0.5c-0.3-0.1-0.6-0.1-1-0.2
		c0.5-0.2,1-0.3,1.7-0.4c0.6-0.1,0.9-0.3,0.9-0.8c0-0.5,0-1.1,0-1.8c0-0.7-0.1-1.4-0.1-2.1c0-0.8,1-1.8,3.1-3.1
		c-0.6-1.5-1-3-1.2-4.4c0.4,0,0.9-0.1,1.3-0.2c0.4-0.2,0.8-0.3,1.2-0.4c0.8,0,1.6,0.3,2.2,0.9C139.6,37.5,139.9,38.3,139.9,39.2z
		 M131.8,46.1c0.1,0.1,0.1,0.2,0.2,0.2c-0.2,0.1-0.6,0.2-1.3,0.2c-0.7,0-1.1-0.1-1.1-0.2c0-0.1,0.1-0.1,0.3-0.2
		c0.2-0.1,0.5-0.2,0.7-0.3c0.2-0.1,0.3-0.1,0.4-0.1C131,45.8,131.3,46,131.8,46.1z"/>
	<path class="st0" d="M178.9,65c-1,0.3-2.9,0.5-5.8,0.9c-2.9,0.3-5.6,0.6-8.4,1s-4.6,0.8-5.7,1.3c0.2-0.1,0.5-0.2,0.7-0.3
		c0.3-0.1,0.4-0.2,0.5-0.3c-2.5-0.7-5.1-1.3-7.8-1.8c-2.7-0.5-5-0.7-7-0.7h3.8c0.1-0.2,0.3-0.4,0.6-0.6c0.3-0.2,0.5-0.4,0.6-0.5
		c-0.9-0.9-1.6-1.9-2.1-2.8c-0.5-0.9-1.1-1.8-1.6-2.8c-0.3,0.5-0.4,0.8-0.5,0.9c0,0.1-0.1,0.4-0.2,0.9V44.6l1.2,1.3
		c0.2-0.4,0.4-0.8,0.6-1c0.3-0.3,0.5-0.6,0.5-0.7c0-0.3-0.1-0.9-0.4-2c1.8-0.8,3.2-1.6,4.4-2.4c0.8-0.6,1.6-1.3,2.3-1.9
		c1.3,0.3,2.3,0.4,3.1,0.4c0.7,0,1.3-0.1,1.6-0.3c0.2-0.3,0.4-0.5,0.6-0.8c2,0,3.3,0.1,4.1,0.3c0.2,0.1,0.4,0.2,0.6,0.3
		c0,0.5,0.4,0.7,1.1,0.7c0.5,0,1.2-0.1,2-0.3c0.4-0.1,0.8-0.2,1.3-0.3c1.8,0.6,3.4,2.4,5,5.2c1.6,2.8,3.2,4.6,4.9,5.3
		c-1,0.7-1.7,1.1-1.9,1.3c-0.4,0.3-0.6,1-0.6,2v1.1c0,0.5,0,0.8,0.1,0.9c0.6-0.1,1.4,0,2.4,0.3c-1,0.3-2.5,0.5-4.5,0.6
		c-1.9,0.1-4.2,0.2-6.7,0.2c-3.7,0-7.2-0.1-10.5-0.3c-3.3-0.2-5.1-0.3-5.5-0.5v5.4l27.2,0c-0.2,0.1-0.5,0.4-0.9,0.6
		c-0.2,0.1-0.3,0.2-0.3,0.2c-0.1-0.1-0.1-0.1-0.2-0.2c-0.2-0.2-0.6-0.4-1-0.6c-0.3,1.4-0.5,2.4-0.7,2.9c-0.2,0.9-0.4,1.6-0.6,2.1
		c0.7,0.2,1.3,0.3,1.9,0.4C177.5,64.9,178.2,65,178.9,65z M172.1,50.1l-18.6,0.1c-0.2-0.1-0.3-0.4-0.4-1.1c-0.2-1.5-0.5-2.4-0.8-2.6
		c0.3,0.3,0.7,0.5,1.2,0.6c0-0.4,0-0.7-0.1-0.9c-0.1-0.1-0.1-0.1-0.1-0.2c0-0.1,0.1-0.2,0.2-0.3c0.1-0.1,0.3-0.5,0.7-1
		c-0.3,0.3-0.5,0.8-0.6,1.3c1-1,2-2,2.9-2.9c0.3-0.1,1.3-0.2,2.9-0.2h2.9c0.9,0,1.8,0.1,2.7,0.4c1,0.3,1.9,0.6,2.9,0.8
		c-0.3-0.6-0.7-1-1.3-1.2c1,0.7,2.2,2.2,3.8,4.5C170.9,48.2,171.5,49.1,172.1,50.1z M155.9,50.1c0.5,0.3,0.8,0.5,0.8,0.6
		c0,0.1-0.1,0.1-0.4,0.1c-0.7,0-1.6-0.2-2.6-0.5c-0.1-0.1-0.1-0.2-0.2-0.3c0.4,0,0.6-0.1,0.6-0.4c0-0.3,0-0.4,0.1-0.4
		c0.2,0,0.4,0.1,0.7,0.2C155,49.6,155.4,49.8,155.9,50.1z M170.9,61.3c-0.3-0.2-0.5-0.4-0.7-0.5c-0.1-0.1-0.4-0.4-0.6-0.7h-15.4
		c0.6,1.3,1.6,2.1,2.9,2.6c1,0.3,2.5,0.5,4.5,0.5c0.4,0,1-0.1,1.8-0.3c0.7-0.2,1.4-0.3,2-0.3c-0.3-0.3-0.5-0.7-0.6-1.2
		c0.8,0.3,1.3,0.4,1.5,0.5c0.6,0.2,0.9,0.3,1.1,0.3c0.1,0,0.4-0.1,0.9-0.2C169,61.6,169.9,61.5,170.9,61.3z"/>
	<path class="st0" d="M203.2,63c-1,0.8-1.8,1.6-2.5,2.3c-0.2,0.2-0.5,0.5-0.7,0.9c-3.3-0.3-5.8-0.5-7.4-0.6c-5-0.5-7.8-0.8-8.5-0.9
		c-0.1-0.1-0.1-0.1-0.1-0.2c-0.3-0.3-0.4-0.6-0.4-0.9c0-0.6,0.3-1.1,0.8-1.3s1.4-0.3,2.5-0.3c0.3,0,0.8,0,1.5,0c0.7,0,1.2,0,1.6,0
		c0-0.3,0.1-0.6,0.3-0.8c-0.1-0.1-0.4-0.4-0.8-0.8c0.6-0.1,1.1-0.3,1.7-0.5c-0.4-0.4-0.6-0.7-0.6-1.1l-1.6-0.5h-4.3h5.9
		c0-0.8,0.1-1.6,0.3-2.5c0.2-0.8,0.3-1.5,0.3-2l-1.7,0.3c1.1-1.7,1.7-2.9,1.7-3.8c0-0.8-0.5-1.3-1.4-1.4c-0.9-0.2-2.6-0.2-5.1-0.2
		c2.3,0,3.6,0,3.9,0c1.7-0.1,2.6-0.7,2.6-1.8c0-0.7-0.4-1.9-1.2-3.5c0.1,0.2,0.1,0.4,0.2,0.5c0.1,0.1,0.2,0.3,0.3,0.5
		c0.1-0.2,0.2-0.3,0.2-0.4c0.3-0.7,0.4-1.5,0.4-2.2c0-0.7,0-1.5,0-2.1s0-1.3,0-1.8c0-1.3-0.3-2.1-0.9-2.5c-1.6-0.5-3.3-1.3-5.1-2.2
		c0.5-0.7,1-1.4,1.6-2.1c0.5-0.4,1.8-0.6,3.8-0.6h1.9c0.9,0,1.6,0.1,2.1,0.4c0.4,0.3,0.7,0.9,0.9,1.7c0.3,2,0.4,3.9,0.4,5.6
		c0,1,0,2.2-0.1,3.6c-0.2,3.3-0.3,5.5-0.3,6.8c0.9,0,2.3,0,4.2,0c2,0,3.2,0,3.8,0c-2.6,0.1-4.6,0.2-6,0.5c-1.4,0.3-2.1,0.8-2.1,1.6
		c0,0.9,0.3,1.7,1,2.2c0.3,0.2,1,0.6,2.2,1.1c-1.3,0.1-2.4,0.3-3.2,0.5v6.9c1.1,0.2,2.4,0.4,3.9,0.6C200.5,62.2,201.9,62.5,203.2,63
		z"/>
	<path class="st0" d="M228.3,49.5c0.9,0.1,1.6,0.1,2,0.2c1.4,0.2,2.1,0.6,2.3,1c0.1,0.2,0,0.3-0.3,0.3c-0.5,0-1.6-0.3-3-1
		C229.1,49.9,228.7,49.7,228.3,49.5z M238.9,66h7.9h-9.1c-0.2,0-0.7,0-1.5,0c-0.8,0-1.7,0-2.7,0c-1,0-1.7,0-2,0s-0.7,0-1.1,0
		L238.9,66z M263.2,63.9c-3.2,0-5.3,0.1-6.3,0.3s-2,0.8-3.2,1.7h-14.9c-1.7-1.4-2.8-2.3-3.3-2.6c-0.7-0.6-1.4-0.9-1.9-0.9
		c0.1-0.4,0.1-0.7,0.1-1.1s0-0.6,0-0.7c0-1-0.2-1.6-0.6-1.9c-0.7-0.2-1.3-0.3-1.8-0.5v-9.4c1.1-2,1.8-3.2,2-3.8
		c0.4-0.8,0.6-1.5,0.6-2.1c0-0.4-0.1-1-0.3-1.8c2.3-0.9,5.6-2,9.9-3.4c0.9-0.3,1.3-0.7,1.3-1.4c0.7,0.6,1.2,1,1.7,1.3
		c0.5,0.2,0.9,0.4,1.2,0.4c0.2,0,0.6-0.1,1.1-0.2c0.5-0.2,1-0.2,1.4-0.2c0.5,0,1.1,0.1,1.7,0.2c0.6,0.2,1.4,0.5,2.4,1
		c0.8-1,1.3-1.7,1.5-2.1c0.2-0.4,0.3-0.8,0.3-1.3c0-0.2,0-0.4,0-0.6c0-0.2,0-0.5,0-0.8c0.1-0.4,0.3-1,0.4-2c0.1-1,0.2-2.3,0.2-3.9
		h4.1c0.3,2.2,0.5,4.4,0.5,6.4c0,1.5-0.1,3.2-0.3,5.2c-0.2,2-0.3,3.1-0.3,3.5c0,1.1,0.2,2.1,0.5,2.8c0.3,0.8,1,1.5,1.9,2.2
		c-1,0.4-1.6,0.7-1.9,0.9c-0.3,0.2-0.5,0.7-0.5,1.5c0,1,0.3,1.7,1,2.1c0.7,0.4,1.1,0.7,1.4,0.8c-0.7,0.4-1.3,0.8-2,1.2
		c-0.3,0.2-0.4,0.4-0.4,0.7v0.8c0,1,0.2,1.6,0.5,1.9c0.7,0.2,1.3,0.5,1.9,0.9c-0.5,0-1,0-1.6,0s-1,0-1.1,0c-0.6,0-1,0.2-1.2,0.7
		c-0.5,1.2-0.9,2.4-1.4,3.5c0.3,0.2,0.5,0.4,0.7,0.6c0.1,0.1,0.2,0.3,0.5,0.6c0.6-0.3,1.2-0.7,1.8-1.2c0.5,0.3,0.9,0.4,1.2,0.5
		C262.3,63.7,262.7,63.8,263.2,63.9z M231.3,56.2c0,0.6,0.1,0.9,0.3,0.9c0.3,0,0.4-0.2,0.4-0.6c0-0.1-0.1-0.2-0.2-0.2
		c-0.1,0-0.3,0.1-0.6,0.3v-3c0.4,0.3,0.8,0.5,1.1,0.7c0.1,0,0.2,0.1,0.3,0.1c-0.2-0.1-0.4-0.1-0.5-0.1c-0.3,0-0.5,0.1-0.6,0.4
		C231.3,55,231.3,55.5,231.3,56.2z M255.5,47.1v-2.4c-0.2-0.1-0.4-0.1-0.6-0.2c-0.1,0-0.3-0.1-0.4-0.1c-0.1,0-0.4-0.3-0.8-0.9
		c-0.1,0.1-0.2,0.2-0.4,0.3c-0.2,0.1-0.5,0.2-0.8,0.4c0.1-0.7,0.3-1.3,0.6-1.8h-12.4c-0.3,1-0.9,2-1.7,3.1c-0.4,0.6-0.8,1.1-1.3,1.7
		H255.5z M255.5,52.4c-0.1-0.4-0.1-0.7-0.1-0.9c0-0.1,0-0.4,0.1-0.9v-1.8h-17.2c-0.1,0.7-0.1,1.3-0.1,1.9c0,0.4,0,1,0.1,1.6
		c2.3,0,4.6,0,6.9,0c2.2,0,4.4,0,6.6,0C254.1,52.4,255.4,52.4,255.5,52.4z M255.5,56.6h-3l1.2-1.8c-1.4-0.2-4-0.3-8.1-0.5
		c-4-0.1-6.5-0.2-7.4-0.2c-0.1,0.4-0.1,1.1-0.1,2c0,0.3,0,0.5,0,0.7c0,0.2,0,0.5,0.1,0.8h16.6c0.3-0.7,0.4-1.1,0.4-1.1
		c0.1-0.6,0.2-1.4,0.2-2.5c-0.1,0.4-0.2,0.7-0.2,1C255.4,55.6,255.5,56.1,255.5,56.6z M249,59.5c-1,0-2.1,0-3.2,0.1
		c-1.1,0.1-1.8,0.1-2.2,0.1c-0.6,0-1.6-0.1-2.8-0.3c0.2,0.2,0.4,0.4,0.4,0.5c0.1,0.1,0.1,0.3,0.2,0.7l-1.8-0.6
		c1.1,0.5,2,0.9,2.5,1.1c0.5,0.2,1,0.3,1.4,0.3c0.3,0,1-0.1,2-0.3c1-0.2,1.8-0.4,2.3-0.4c-0.3-0.3-0.5-0.7-0.6-1.2
		c0.6,0.1,0.9,0.1,1.1,0.1C248.5,59.6,248.7,59.5,249,59.5z M253.8,59.5h-3c0.2,0.1,0.5,0.1,0.9,0.1c0.4,0,0.7,0,0.9-0.1
		c-0.1,0.3-0.1,0.7-0.3,1c-0.1,0.3-0.2,0.6-0.3,0.8c-0.3-0.1-0.7-0.3-1.3-0.6c-0.3-0.1-0.6-0.3-1.1-0.6c0,0,0,0.1,0,0.2
		c0,0.1-0.2,0.5-0.6,1c0.4,0,1,0.1,2,0.3c0.2,0,0.4,0.1,0.7,0.2c0.5,0,0.9-0.3,1.2-0.8C253.2,60.5,253.5,60,253.8,59.5z"/>
	<path class="st0" d="M268.2,60.5c-0.2,0.3-0.4,0.6-0.6,0.9c-0.2,0.3-0.4,0.6-0.7,0.9C267.3,61.8,267.7,61.1,268.2,60.5z
		 M298.1,45.2c-0.2,0-0.6-0.1-1.2-0.1c-0.5,0-1.1,0-1.8,0c-1.1,0-2,0.1-2.8,0.2c-2,0.4-3,0.6-3.2,0.6c0,0.4-0.1,0.9-0.5,1.6
		c-0.4,0.7-1,1.4-2,2.2c0.6,0.2,1.1,0.4,1.5,0.5c0.4,0.1,0.8,0.1,1.1,0.2c-2.4,0.6-3.9,1.3-4.3,2.2c-0.5,1-1.4,1.8-2.7,2.3
		c0.5,0.4,1,0.8,1.5,1.2c0.3,0.1,1.3,0.1,2.9,0.1c-1,0.2-2.1,0.3-3.3,0.4c-1.2,0.1-2.6,0.2-4.3,0.2c-0.1,0.7-0.1,1.2-0.2,1.3
		c0,0.1-0.2,0.5-0.5,1.2c0.8,0.5,2.8,1,6,1.3c3.2,0.4,7.1,0.6,11.7,0.6c0,0.2,0.1,0.5,0.3,0.8c0.1,0.1,0.2,0.2,0.3,0.5
		c0,2.1-5.3,3.2-15.9,3.2c-3.8,0-6.6-0.2-8.4-0.5c-1.9-0.3-3.3-1-4.3-2c0.7-1,1.2-1.7,1.6-2.2c0.6-0.8,1.6-1.7,2.9-3
		c-0.2-0.3-0.3-0.6-0.4-0.8c-0.1-0.2-0.1-0.3-0.1-0.4c0-0.1-0.1-0.2-0.3-0.2c-0.3-0.1-0.7-0.3-1.2-0.6c1.4,0.1,2.3,0.1,2.6,0.1
		c0.3,0,0.6-0.1,0.7-0.3c1-1,2-2,3-3v-2.5h-5h1.2c1.2,0,2-0.1,2.5-0.2c0.4-0.1,1.3-0.5,2.7-1.1c-0.3,0.1-0.6,0.2-0.8,0.3
		c-0.2,0.1-0.4,0.2-0.5,0.3c1.8,0,3-0.3,3.4-0.9c0.2-0.3,0.6-0.4,1-0.4c0.5,0,0.8-0.1,0.9-0.3c0.2-0.2,0.3-0.6,0.3-1
		c0-0.4,0-0.7-0.1-1.1c-0.1-0.4-0.2-0.8-0.4-1.4c1.8-0.5,3-1.3,3.9-2.4c0.2-0.3,0.6-1.2,1.2-2.6c-2.8,0-5.1,0-7-0.1s-3.5-0.1-5-0.2
		c-0.6,0-1.2,0-1.8,0c-0.6,0-1.3,0.1-2,0.2v-3.8c0.5-0.1,2.3-0.4,5.4-0.7c4-0.4,7.6-0.6,10.7-0.6c3,0,5.3,0.4,6.7,1.3
		c1.2,0.7,1.8,1.8,1.8,3.1l-4.4,5.1c0.3,0.1,0.8,0.3,1.4,0.4c0.6,0.2,1.1,0.2,1.5,0.2c0.5,0,0.9-0.1,1.2-0.3
		c0.1-0.1,0.2-0.2,0.3-0.3c0,0.1,0.1,0.2,0.1,0.3C296.6,44.7,297.2,45,298.1,45.2z"/>
</g>
</svg>
